<svg width="614.112" height="115.332" viewBox="0 0 614.112 115.332" xmlns="http://www.w3.org/2000/svg"><g id="svgGroup" stroke-linecap="round" fill-rule="evenodd" font-size="9pt" stroke="#ff4817" stroke-width="0.25mm" fill="#ff5224" style="stroke:#ff4817;stroke-width:0.25mm;fill:#ff5224"><path d="M 114.844 11.865 A 117.44 117.44 0 0 0 113.201 14.344 Q 112.487 15.448 111.726 16.672 A 210.129 210.129 0 0 0 110.157 19.238 Q 107.569 23.535 104.639 28.858 A 169.35 169.35 0 0 0 100.945 35.838 A 192.913 192.913 0 0 0 99.732 38.306 Q 97.315 43.311 95.118 48.218 A 353.895 353.895 0 0 0 93.006 53.027 A 306.294 306.294 0 0 0 91.065 57.642 A 931.726 931.726 0 0 0 89.535 61.388 Q 88.842 63.095 88.236 64.611 A 511.764 511.764 0 0 0 87.842 65.601 Q 86.475 69.043 85.694 71.118 A 472.777 472.777 0 0 0 85.511 71.605 Q 84.913 73.2 84.913 73.242 A 2.24 2.24 0 0 1 84.542 73.873 Q 84.101 74.389 83.369 74.454 A 2.442 2.442 0 0 1 83.155 74.463 A 1.684 1.684 0 0 1 82.032 74.048 A 1.903 1.903 0 0 1 81.397 72.998 A 0.41 0.41 0 0 0 81.39 72.955 Q 81.346 72.734 81.044 71.408 A 652.626 652.626 0 0 0 80.933 70.923 A 2558.864 2558.864 0 0 0 80.681 69.824 Q 80.401 68.603 80.037 67.019 A 8164.134 8164.134 0 0 0 79.688 65.503 Q 79.017 62.587 78.183 58.913 A 3194.581 3194.581 0 0 1 77.906 57.691 A 5062.794 5062.794 0 0 0 76.349 50.842 A 5744.413 5744.413 0 0 0 75.806 48.462 A 14939.867 14939.867 0 0 1 73.584 38.721 Q 72.461 33.789 71.485 29.346 A 224.843 224.843 0 0 1 68.31 37.788 Q 66.617 42.016 64.917 45.679 Q 61.621 52.783 58.155 58.032 A 61.1 61.1 0 0 1 54.661 62.826 A 44.897 44.897 0 0 1 51.001 66.846 A 37.407 37.407 0 0 1 46.138 70.842 A 31.66 31.66 0 0 1 43.287 72.583 A 31.222 31.222 0 0 1 34.839 75.684 A 44.119 44.119 0 0 1 27.622 76.567 A 50.7 50.7 0 0 1 25.489 76.611 A 26.124 26.124 0 0 1 22.224 76.398 A 32.538 32.538 0 0 1 20.069 76.05 A 29.86 29.86 0 0 1 14.356 74.317 A 30.13 30.13 0 0 1 8.936 71.387 A 21.936 21.936 0 0 1 4.346 67.212 A 19.413 19.413 0 0 1 1.172 61.743 A 17.547 17.547 0 0 1 0.139 57.433 A 21.971 21.971 0 0 1 0 54.932 Q 0 50.977 1.661 47.681 A 17.67 17.67 0 0 1 6.153 42.017 Q 8.985 39.649 12.72 38.33 Q 16.455 37.012 20.606 37.012 A 30.72 30.72 0 0 1 23.47 37.139 A 22.618 22.618 0 0 1 26.05 37.525 A 27.679 27.679 0 0 1 28.323 38.103 A 20.337 20.337 0 0 1 30.323 38.818 Q 32.117 39.574 33.408 40.466 A 12.246 12.246 0 0 1 33.496 40.527 Q 34.815 41.455 35.694 42.236 A 13.983 13.983 0 0 1 36.195 42.703 Q 36.695 43.193 36.963 43.579 A 19.377 19.377 0 0 0 37.056 43.711 Q 37.35 44.127 37.4 44.14 A 0.012 0.012 0 0 0 37.403 44.141 Q 37.696 44.678 37.696 45.166 A 1.8 1.8 0 0 1 37.383 46.175 A 2.422 2.422 0 0 1 37.183 46.436 A 1.677 1.677 0 0 1 35.955 47.019 A 2.261 2.261 0 0 1 35.84 47.022 A 1.788 1.788 0 0 1 34.455 46.414 A 2.36 2.36 0 0 1 34.278 46.192 A 0.776 0.776 0 0 1 34.255 46.167 Q 34.137 46.036 33.496 45.288 Q 32.835 44.516 31.416 43.605 A 20.835 20.835 0 0 0 31.104 43.408 A 14.223 14.223 0 0 0 29.598 42.607 Q 28.383 42.046 26.831 41.553 A 16.101 16.101 0 0 0 24.423 41 Q 23.192 40.809 21.78 40.75 A 31.336 31.336 0 0 0 20.459 40.723 A 19.896 19.896 0 0 0 14.565 41.585 A 18.748 18.748 0 0 0 13.99 41.773 A 17.242 17.242 0 0 0 10.084 43.671 A 15.386 15.386 0 0 0 8.667 44.727 A 14.483 14.483 0 0 0 5.054 49.243 A 12.272 12.272 0 0 0 3.717 54.592 A 14.327 14.327 0 0 0 3.711 54.981 A 16.031 16.031 0 0 0 4.073 58.444 A 13.519 13.519 0 0 0 4.737 60.596 Q 5.762 63.135 7.471 65.137 A 18.342 18.342 0 0 0 11.426 68.604 Q 13.672 70.068 16.114 71.021 A 27.463 27.463 0 0 0 21.021 72.437 Q 23.487 72.9 25.684 72.9 A 46.218 46.218 0 0 0 32.935 72.339 A 27.109 27.109 0 0 0 39.864 70.239 A 30.026 30.026 0 0 0 39.917 70.215 A 28.563 28.563 0 0 0 44.383 67.659 A 34.904 34.904 0 0 0 46.68 65.918 A 33.381 33.381 0 0 0 49.782 62.99 Q 51.534 61.124 53.272 58.789 A 63.045 63.045 0 0 0 56.323 54.272 Q 57.827 51.836 59.316 49.01 A 106.579 106.579 0 0 0 59.742 48.193 A 116.092 116.092 0 0 0 62.545 42.338 Q 63.899 39.307 65.257 35.876 A 200.021 200.021 0 0 0 66.163 33.545 Q 67.139 31.006 68.067 28.076 A 611.733 611.733 0 0 1 69.971 22.168 Q 69.4 19.214 69.049 16.86 A 73.382 73.382 0 0 1 68.775 14.844 A 64.239 64.239 0 0 1 68.566 12.884 Q 68.487 12.006 68.448 11.239 A 27.877 27.877 0 0 1 68.409 9.815 Q 68.409 7.727 68.731 6.47 A 6.343 6.343 0 0 1 68.75 6.397 A 8.101 8.101 0 0 1 68.996 5.629 Q 69.136 5.259 69.3 4.962 A 3.319 3.319 0 0 1 69.629 4.468 A 3.077 3.077 0 0 1 70.041 4.046 Q 70.312 3.82 70.604 3.704 A 1.771 1.771 0 0 1 70.801 3.638 A 5.013 5.013 0 0 1 71.576 3.491 A 4.23 4.23 0 0 1 72.022 3.467 A 2.923 2.923 0 0 1 72.498 3.508 Q 72.791 3.557 73.121 3.662 A 1.965 1.965 0 0 1 73.739 3.999 Q 74.002 4.206 74.244 4.517 A 3.513 3.513 0 0 1 74.59 5.069 Q 74.735 5.351 74.862 5.695 A 8.708 8.708 0 0 1 75.098 6.445 A 8.241 8.241 0 0 1 75.291 7.41 Q 75.439 8.437 75.44 9.841 A 26.607 26.607 0 0 1 75.44 9.863 A 30.53 30.53 0 0 1 75.356 12.054 Q 75.275 13.178 75.115 14.433 A 55.206 55.206 0 0 1 75 15.283 A 65.815 65.815 0 0 1 74.451 18.518 A 89.455 89.455 0 0 1 73.682 22.07 A 452.522 452.522 0 0 0 74.366 25.22 A 619.15 619.15 0 0 0 75.147 28.711 Q 75.977 32.373 76.856 36.304 Q 77.735 40.234 78.663 44.336 A 7249.384 7249.384 0 0 1 80.469 52.344 A 8119.169 8119.169 0 0 0 81.746 58.011 A 7068.789 7068.789 0 0 0 82.154 59.815 A 729.084 729.084 0 0 0 82.929 63.208 A 532.099 532.099 0 0 0 83.643 66.26 A 1032.596 1032.596 0 0 1 84.714 63.574 Q 85.675 61.173 86.866 58.228 A 304.629 304.629 0 0 1 88.88 53.369 A 370.685 370.685 0 0 1 91.114 48.218 A 433.747 433.747 0 0 1 96.07 37.427 A 181.085 181.085 0 0 1 100.057 29.53 A 159.739 159.739 0 0 1 101.416 27.051 A 266.874 266.874 0 0 1 104.22 22.129 Q 106.482 18.259 108.496 15.161 A 296.235 296.235 0 0 1 110.053 12.792 Q 112.305 9.4 114.063 6.983 A 144.791 144.791 0 0 1 115.172 5.476 Q 116.252 4.032 117.065 3.035 A 32.219 32.219 0 0 1 117.749 2.222 Q 119.092 0.684 119.19 0.537 A 1.789 1.789 0 0 1 120.484 0 A 2.255 2.255 0 0 1 120.508 0 A 1.991 1.991 0 0 1 121.147 0.098 A 1.657 1.657 0 0 1 121.851 0.562 Q 122.364 1.123 122.364 1.856 A 1.686 1.686 0 0 1 122.259 2.432 A 1.983 1.983 0 0 1 122.217 2.539 A 0.169 0.169 0 0 1 122.208 2.572 Q 122.147 2.762 121.656 3.98 A 51.757 51.757 0 0 0 121.357 4.739 Q 121.029 5.589 120.624 6.712 A 172.496 172.496 0 0 0 120.24 7.788 Q 119.385 10.205 118.36 13.452 A 135.291 135.291 0 0 0 117.097 17.702 A 163.163 163.163 0 0 0 116.358 20.435 Q 115.381 24.17 114.624 28.247 Q 113.868 32.324 113.526 36.377 A 123.126 123.126 0 0 0 113.334 39.256 A 139.973 139.973 0 0 0 113.282 40.259 A 84.688 84.688 0 0 0 113.184 44.336 A 72.778 72.778 0 0 0 113.477 50.83 A 48.273 48.273 0 0 0 114.37 56.75 A 44.508 44.508 0 0 0 114.454 57.129 Q 115.137 60.156 116.309 62.817 A 19.727 19.727 0 0 0 118.15 66.13 A 17.106 17.106 0 0 0 119.19 67.481 Q 120.899 69.483 123.267 70.703 Q 125.635 71.924 128.76 72.022 A 1.718 1.718 0 0 1 129.443 72.201 A 1.646 1.646 0 0 1 130.005 72.681 A 2.369 2.369 0 0 1 130.342 73.279 A 1.96 1.96 0 0 1 130.469 73.975 A 1.632 1.632 0 0 1 130.074 75.039 A 2.215 2.215 0 0 1 129.932 75.195 A 1.836 1.836 0 0 1 129.326 75.607 A 1.74 1.74 0 0 1 128.663 75.733 A 8.462 8.462 0 0 1 127.1 75.586 A 18.834 18.834 0 0 1 123.455 74.721 A 15.333 15.333 0 0 1 120.899 73.56 A 17.6 17.6 0 0 1 116.26 69.751 Q 114.307 67.481 113.013 64.575 A 34.462 34.462 0 0 1 111.141 59.173 A 38.561 38.561 0 0 1 110.938 58.35 A 48.905 48.905 0 0 1 109.849 51.553 A 53.391 53.391 0 0 1 109.839 51.441 A 82.275 82.275 0 0 1 109.522 44.19 A 86.333 86.333 0 0 1 109.961 35.498 Q 110.401 31.152 111.133 27.026 Q 111.866 22.9 112.842 19.043 A 156.401 156.401 0 0 1 114.082 14.431 A 127.501 127.501 0 0 1 114.844 11.865 Z M 484.101 72.954 A 1.863 1.863 0 0 0 484.278 72.119 A 2.504 2.504 0 0 0 484.276 72.036 A 1.918 1.918 0 0 0 483.741 70.728 A 1.486 1.486 0 0 0 483.044 70.317 Q 482.684 70.218 482.227 70.264 Q 481.69 70.313 480.323 70.557 A 31.18 31.18 0 0 0 479.658 70.683 Q 479.083 70.799 478.442 70.948 A 57.911 57.911 0 0 0 477.149 71.265 A 79.388 79.388 0 0 0 475.275 71.771 A 99.607 99.607 0 0 0 473.267 72.363 A 45.02 45.02 0 0 0 469.19 73.828 Q 468.946 70.996 468.799 68.14 A 117.597 117.597 0 0 1 468.735 66.725 A 104.151 104.151 0 0 1 468.653 62.647 A 103.119 103.119 0 0 1 468.708 59.363 A 136.383 136.383 0 0 1 468.872 55.762 Q 469.092 52.002 469.434 48.193 A 314.703 314.703 0 0 1 469.455 47.956 A 289.523 289.523 0 0 1 470.191 40.796 A 364.521 364.521 0 0 1 470.307 39.803 Q 470.661 36.816 470.996 34.424 A 1058.032 1058.032 0 0 1 471.527 30.798 A 916.767 916.767 0 0 1 472.046 27.344 A 42082.84 42082.84 0 0 1 472.188 26.412 Q 472.614 23.614 472.95 21.411 Q 473.243 19.489 473.453 18.115 A 1732.036 1732.036 0 0 1 473.584 17.261 Q 473.784 15.965 473.82 15.597 A 1.369 1.369 0 0 0 473.829 15.479 A 1.7 1.7 0 0 0 473.666 14.748 A 2.067 2.067 0 0 0 473.316 14.234 A 1.657 1.657 0 0 0 472.612 13.77 A 1.991 1.991 0 0 0 471.973 13.672 Q 471.338 13.672 470.826 14.087 Q 470.313 14.502 470.215 15.186 Q 470.215 15.228 469.916 16.692 A 636.718 636.718 0 0 1 469.825 17.139 Q 469.434 19.043 468.726 22.144 Q 468.328 23.888 467.821 25.918 A 288.515 288.515 0 0 1 466.968 29.248 Q 465.918 33.252 464.6 37.598 A 151.539 151.539 0 0 1 461.67 46.289 A 90.744 90.744 0 0 1 460.639 48.943 A 76.847 76.847 0 0 1 458.204 54.346 Q 453.321 64.16 448.072 69.092 A 26.04 26.04 0 0 1 447.224 69.855 Q 442.378 74.024 437.305 74.024 A 17.173 17.173 0 0 1 436.518 74.006 Q 435.364 73.953 434.364 73.741 A 9.208 9.208 0 0 1 432.227 73.023 A 8.664 8.664 0 0 1 428.907 70.239 A 10.619 10.619 0 0 1 427.931 68.558 A 12.81 12.81 0 0 1 427.076 66.04 A 20.584 20.584 0 0 1 426.723 64.089 A 25.074 25.074 0 0 1 426.514 60.791 A 42.772 42.772 0 0 1 426.599 58.14 A 52.76 52.76 0 0 1 427.027 54.004 A 113.049 113.049 0 0 1 427.159 53.098 A 124.309 124.309 0 0 1 428.321 46.582 A 316.757 316.757 0 0 1 430.005 38.867 Q 430.909 34.961 431.641 31.201 Q 432.032 29.443 432.178 27.759 A 38.046 38.046 0 0 0 432.325 24.463 A 28.136 28.136 0 0 0 432.279 22.854 A 24.104 24.104 0 0 0 431.031 16.358 A 21.832 21.832 0 0 0 430.689 15.433 A 18.777 18.777 0 0 0 427.295 9.839 A 16.488 16.488 0 0 0 426.172 8.688 A 17.584 17.584 0 0 0 421.265 5.493 A 17.828 17.828 0 0 0 417.676 4.351 A 22.259 22.259 0 0 0 413.135 3.906 Q 407.715 3.906 402.906 5.933 A 25.219 25.219 0 0 0 394.532 11.621 Q 390.967 15.283 388.892 20.386 A 27.027 27.027 0 0 0 387.587 24.532 A 31.717 31.717 0 0 0 386.817 31.641 A 37.39 37.39 0 0 0 386.822 32.286 Q 386.893 36.375 387.867 39.478 A 27.532 27.532 0 0 0 388.898 42.254 A 20.757 20.757 0 0 0 390.503 45.264 A 19.914 19.914 0 0 0 391.745 46.975 A 15.859 15.859 0 0 0 394.043 49.292 Q 395.028 50.092 395.968 50.724 A 18.912 18.912 0 0 0 397.779 51.807 Q 399.561 52.734 400.977 53.125 A 28.108 28.108 0 0 0 401.18 53.18 Q 402.105 53.428 402.618 53.493 A 2.545 2.545 0 0 0 402.93 53.516 Q 403.663 53.516 404.2 52.954 A 2.349 2.349 0 0 0 404.235 52.917 A 1.807 1.807 0 0 0 404.737 51.66 A 1.816 1.816 0 0 0 404.273 50.44 Q 403.809 49.902 403.125 49.805 A 15.48 15.48 0 0 1 401.523 49.436 A 12.501 12.501 0 0 1 397.413 47.412 A 15.276 15.276 0 0 1 393.482 43.042 A 19.838 19.838 0 0 1 391.211 37.427 A 26.173 26.173 0 0 1 390.479 31.299 A 28.063 28.063 0 0 1 390.528 29.638 A 23.88 23.88 0 0 1 392.286 21.826 Q 394.092 17.481 397.168 14.307 A 22.162 22.162 0 0 1 404.371 9.351 A 21.986 21.986 0 0 1 413.184 7.568 Q 416.895 7.568 419.776 8.862 A 16.058 16.058 0 0 1 419.866 8.903 A 14.02 14.02 0 0 1 424.634 12.402 A 14.264 14.264 0 0 1 425.724 13.809 A 15.814 15.814 0 0 1 427.637 17.725 A 19.13 19.13 0 0 1 428.178 19.695 A 21.846 21.846 0 0 1 428.663 24.365 A 28.709 28.709 0 0 1 428.534 27.048 A 35.261 35.261 0 0 1 427.881 31.201 A 2597.766 2597.766 0 0 1 426.319 38.379 A 350.122 350.122 0 0 0 423.926 50.122 A 68.389 68.389 0 0 0 423.251 54.535 A 54.727 54.727 0 0 0 422.852 60.986 A 29.146 29.146 0 0 0 423.02 64.179 A 22.338 22.338 0 0 0 423.731 67.871 A 16.614 16.614 0 0 0 424.299 69.531 A 13.443 13.443 0 0 0 426.416 73.12 A 12.21 12.21 0 0 0 430.909 76.489 Q 432.419 77.162 434.239 77.457 A 18.899 18.899 0 0 0 437.256 77.686 A 15.661 15.661 0 0 0 440.612 77.321 A 17.919 17.919 0 0 0 445.411 75.488 A 21.189 21.189 0 0 0 445.444 75.47 Q 447.585 74.29 449.635 72.516 A 33.863 33.863 0 0 0 453.101 69.019 A 41.2 41.2 0 0 0 453.747 68.252 Q 455.483 66.137 457.148 63.556 A 70.534 70.534 0 0 0 460.157 58.399 A 89.537 89.537 0 0 0 463.404 51.563 A 121.107 121.107 0 0 0 466.407 43.75 Q 466.114 46.484 465.845 49.121 A 271.684 271.684 0 0 0 465.595 51.697 A 234.206 234.206 0 0 0 465.381 54.15 A 145.357 145.357 0 0 0 465.21 56.464 A 117.049 117.049 0 0 0 465.088 58.618 A 108.628 108.628 0 0 0 465.063 59.193 Q 464.991 60.92 464.991 62.305 A 119.419 119.419 0 0 0 464.993 63.102 A 132.355 132.355 0 0 0 465.162 68.872 A 241.594 241.594 0 0 0 465.351 72.186 A 209.107 209.107 0 0 0 465.577 75.342 A 58.248 58.248 0 0 0 460.673 77.913 A 45.333 45.333 0 0 0 455.274 81.616 A 48.422 48.422 0 0 0 451.761 84.718 A 37.222 37.222 0 0 0 448.096 88.843 A 33.896 33.896 0 0 0 446.002 91.932 A 26.107 26.107 0 0 0 443.897 96.289 A 23.962 23.962 0 0 0 442.962 99.452 A 17.878 17.878 0 0 0 442.53 103.272 A 15.661 15.661 0 0 0 442.534 103.659 A 13.77 13.77 0 0 0 443.311 107.959 Q 444.092 110.156 445.557 111.792 A 10.589 10.589 0 0 0 449.121 114.38 A 10.26 10.26 0 0 0 451.208 115.063 A 12.579 12.579 0 0 0 453.858 115.332 A 15.355 15.355 0 0 0 456.425 115.126 A 11.307 11.307 0 0 0 461.475 112.988 A 15.639 15.639 0 0 0 463.692 110.93 A 17.894 17.894 0 0 0 466.407 106.812 Q 468.262 102.979 469.043 98.096 A 63.266 63.266 0 0 0 469.825 88.086 Q 469.825 85.547 469.727 82.935 A 143.744 143.744 0 0 0 469.434 77.686 Q 471.827 76.66 474.121 75.952 A 103.987 103.987 0 0 1 474.757 75.758 Q 476.667 75.182 478.199 74.805 A 65.668 65.668 0 0 1 479.3 74.543 Q 480.357 74.301 481.128 74.17 A 153.123 153.123 0 0 1 481.254 74.149 Q 482.281 73.975 482.373 73.975 Q 483.698 73.771 484.101 72.954 Z M 240.186 61.133 A 65.683 65.683 0 0 0 240.081 61.345 Q 239.91 61.69 239.59 62.341 A 920.339 920.339 0 0 0 239.38 62.769 A 31.851 31.851 0 0 1 238.874 63.754 Q 238.586 64.294 238.245 64.89 A 59.1 59.1 0 0 1 237.818 65.625 A 40.346 40.346 0 0 1 236.575 67.59 A 50.273 50.273 0 0 1 235.596 68.994 A 22.31 22.31 0 0 1 232.764 72.217 A 15.449 15.449 0 0 1 229.395 74.634 A 8.057 8.057 0 0 1 225.586 75.586 A 7.323 7.323 0 0 1 223.055 75.162 A 6.5 6.5 0 0 1 220.826 73.779 A 10.286 10.286 0 0 1 218.27 69.948 A 12.381 12.381 0 0 1 218.018 69.238 A 15.95 15.95 0 0 1 216.075 71.872 A 12.903 12.903 0 0 1 214.063 73.657 A 9.832 9.832 0 0 1 212.216 74.709 A 6.951 6.951 0 0 1 209.473 75.293 Q 207.666 75.293 206.202 74.634 Q 204.737 73.975 203.711 72.778 A 8.468 8.468 0 0 1 202.292 70.416 A 9.848 9.848 0 0 1 202.124 69.971 Q 201.563 68.359 201.563 66.455 A 19.112 19.112 0 0 1 201.847 63.083 A 14.442 14.442 0 0 1 202.857 59.741 A 16.963 16.963 0 0 1 204.537 56.774 A 14.001 14.001 0 0 1 206.153 54.883 Q 208.155 52.93 210.572 51.953 A 13.892 13.892 0 0 1 213.092 51.191 A 11.083 11.083 0 0 1 215.235 50.977 A 9.649 9.649 0 0 1 216.946 51.123 A 8.016 8.016 0 0 1 218.018 51.392 Q 219.109 51.748 219.93 52.159 A 9.375 9.375 0 0 1 220.191 52.295 Q 221.084 52.778 221.572 53.189 A 3.846 3.846 0 0 1 221.582 53.198 A 123.791 123.791 0 0 1 221.698 53.296 Q 222.077 53.619 222.12 53.662 A 2.555 2.555 0 0 1 222.455 54.16 A 1.803 1.803 0 0 1 222.657 54.981 A 1.807 1.807 0 0 1 222.155 56.237 A 2.349 2.349 0 0 1 222.12 56.275 Q 221.582 56.836 220.85 56.836 A 1.872 1.872 0 0 1 220.074 56.678 A 1.819 1.819 0 0 1 219.532 56.299 Q 219.452 56.219 219.209 56.025 A 18.894 18.894 0 0 0 219.092 55.933 A 3.702 3.702 0 0 0 218.808 55.732 Q 218.535 55.557 218.164 55.371 Q 217.62 55.099 216.885 54.89 A 10.598 10.598 0 0 0 216.773 54.859 A 5.976 5.976 0 0 0 215.912 54.694 Q 215.469 54.64 214.974 54.639 A 9.53 9.53 0 0 0 214.942 54.639 Q 213.428 54.639 211.719 55.322 A 8.869 8.869 0 0 0 209.135 56.933 A 10.551 10.551 0 0 0 208.594 57.446 A 10.848 10.848 0 0 0 207.023 59.503 A 13.977 13.977 0 0 0 206.226 61.06 A 10.869 10.869 0 0 0 205.487 63.575 Q 205.288 64.722 205.275 66.025 A 18.4 18.4 0 0 0 205.274 66.211 A 9.337 9.337 0 0 0 205.469 68.091 A 5.232 5.232 0 0 0 206.119 69.769 A 5.006 5.006 0 0 0 206.153 69.824 Q 206.641 70.606 207.471 71.094 A 3.378 3.378 0 0 0 208.463 71.475 Q 208.889 71.569 209.38 71.58 A 5.935 5.935 0 0 0 209.522 71.582 Q 210.401 71.582 211.548 70.996 A 6.296 6.296 0 0 0 212.731 70.202 Q 213.217 69.794 213.683 69.261 A 10.503 10.503 0 0 0 213.746 69.19 Q 214.729 68.046 215.541 66.346 A 18.414 18.414 0 0 0 215.65 66.113 Q 216.451 64.374 216.801 62.034 A 21.42 21.42 0 0 0 216.846 61.719 Q 216.944 61.035 217.481 60.571 Q 218.018 60.108 218.75 60.108 A 1.575 1.575 0 0 1 219.849 60.549 A 2.121 2.121 0 0 1 219.947 60.645 A 2.107 2.107 0 0 1 220.343 61.218 A 1.851 1.851 0 0 1 220.508 61.865 Q 220.546 62.576 220.64 63.73 A 153.047 153.047 0 0 0 220.704 64.478 A 16.008 16.008 0 0 0 221.363 67.822 A 8.522 8.522 0 0 0 222.303 69.887 A 7.602 7.602 0 0 0 222.901 70.703 A 3.351 3.351 0 0 0 225.135 71.888 A 4.803 4.803 0 0 0 225.733 71.924 A 4.554 4.554 0 0 0 227.531 71.544 A 5.649 5.649 0 0 0 228.052 71.289 A 10.066 10.066 0 0 0 229.467 70.334 A 12.624 12.624 0 0 0 230.298 69.605 A 18.337 18.337 0 0 0 231.891 67.865 A 21.288 21.288 0 0 0 232.398 67.212 A 34.46 34.46 0 0 0 234.229 64.502 A 39.433 39.433 0 0 0 235.19 62.831 A 32.944 32.944 0 0 0 235.694 61.865 A 157.138 157.138 0 0 0 236.142 60.961 Q 236.318 60.605 236.474 60.281 A 83.015 83.015 0 0 0 236.768 59.668 A 58.355 58.355 0 0 1 238.055 56.809 Q 239.56 53.711 240.967 51.978 A 10.683 10.683 0 0 1 241.993 50.87 Q 243.297 49.662 244.559 49.529 A 2.975 2.975 0 0 1 244.873 49.512 A 4.073 4.073 0 0 1 245.725 49.596 A 2.889 2.889 0 0 1 246.753 50.025 Q 247.51 50.537 247.95 51.343 A 5.859 5.859 0 0 1 248.434 52.54 A 7.188 7.188 0 0 1 248.584 53.174 A 10.82 10.82 0 0 1 248.777 54.931 A 9.861 9.861 0 0 1 248.78 55.176 A 151.045 151.045 0 0 1 248.725 59.338 A 114.871 114.871 0 0 1 248.56 63.135 Q 248.34 66.748 248.096 70.41 A 117.762 117.762 0 0 1 248.488 69.634 Q 249.095 68.442 249.921 66.877 A 328.648 328.648 0 0 1 249.976 66.773 Q 251.123 64.6 252.369 62.402 A 152.55 152.55 0 0 1 253.601 60.266 A 131.756 131.756 0 0 1 254.81 58.252 Q 256.006 56.299 256.836 55.274 Q 258.252 53.565 259.766 52.832 Q 261.02 52.225 262.107 52.121 A 4.641 4.641 0 0 1 262.549 52.1 A 5.018 5.018 0 0 1 263.59 52.203 A 3.696 3.696 0 0 1 264.722 52.637 A 4.496 4.496 0 0 1 266.211 54.077 A 6.339 6.339 0 0 1 266.854 55.389 A 7.851 7.851 0 0 1 267.09 56.177 A 10.309 10.309 0 0 1 267.363 58.026 A 12.153 12.153 0 0 1 267.383 58.74 Q 267.383 59.522 267.31 60.791 A 321.735 321.735 0 0 0 267.237 62.109 A 398.435 398.435 0 0 0 267.163 63.525 A 961.272 961.272 0 0 0 267.035 66.164 A 1057.639 1057.639 0 0 0 267.017 66.553 A 291.704 291.704 0 0 0 266.95 68.067 A 238.658 238.658 0 0 0 266.895 69.483 A 193.094 193.094 0 0 1 267.676 67.938 A 262.204 262.204 0 0 1 268.555 66.235 Q 269.483 64.453 270.435 62.695 A 182.035 182.035 0 0 1 271.369 60.993 A 151.865 151.865 0 0 1 272.266 59.4 A 34.491 34.491 0 0 1 272.905 58.325 Q 273.42 57.495 273.877 56.885 A 22.586 22.586 0 0 1 275.1 55.342 Q 276.371 53.886 277.535 53.183 A 5.893 5.893 0 0 1 277.808 53.027 Q 279.106 52.335 280.195 52.134 A 4.727 4.727 0 0 1 281.055 52.051 Q 282.39 52.051 283.347 52.446 A 3.937 3.937 0 0 1 283.789 52.661 Q 284.864 53.272 285.474 54.224 Q 286.084 55.176 286.329 56.348 A 11.623 11.623 0 0 1 286.546 57.878 A 9.905 9.905 0 0 1 286.573 58.594 A 25.01 25.01 0 0 1 286.435 61.166 A 28.829 28.829 0 0 1 286.329 62.061 Q 286.084 63.867 286.084 66.358 Q 286.084 67.383 286.182 68.408 A 7.511 7.511 0 0 0 286.328 69.344 A 5.543 5.543 0 0 0 286.597 70.215 A 2.845 2.845 0 0 0 287.598 71.484 A 2.408 2.408 0 0 0 288.346 71.835 Q 288.831 71.973 289.454 71.973 A 5.063 5.063 0 0 0 291.561 71.503 A 6.107 6.107 0 0 0 291.944 71.314 A 10.318 10.318 0 0 0 293.576 70.211 A 12.337 12.337 0 0 0 294.288 69.58 A 17.953 17.953 0 0 0 296 67.682 A 20.536 20.536 0 0 0 296.412 67.139 A 38.348 38.348 0 0 0 298.138 64.575 A 35.206 35.206 0 0 0 298.243 64.404 A 43.684 43.684 0 0 0 299.204 62.743 A 35.647 35.647 0 0 0 299.707 61.792 Q 300.144 60.936 300.465 60.253 A 30.491 30.491 0 0 0 300.733 59.668 A 2.115 2.115 0 0 1 301.047 59.167 A 1.787 1.787 0 0 1 301.416 58.838 Q 301.856 58.545 302.393 58.545 A 1.827 1.827 0 0 1 303.069 58.666 A 1.66 1.66 0 0 1 303.736 59.155 Q 304.248 59.766 304.248 60.449 A 1.686 1.686 0 0 1 304.144 61.026 A 1.983 1.983 0 0 1 304.102 61.133 A 21.748 21.748 0 0 0 303.998 61.345 Q 303.778 61.796 303.321 62.769 A 21.998 21.998 0 0 1 302.826 63.751 Q 302.54 64.287 302.195 64.876 A 41.122 41.122 0 0 1 301.758 65.601 Q 300.782 67.188 299.488 68.945 A 24.72 24.72 0 0 1 296.631 72.192 A 15.094 15.094 0 0 1 293.431 74.543 A 14.182 14.182 0 0 1 293.262 74.634 A 8.057 8.057 0 0 1 289.454 75.586 A 10.052 10.052 0 0 1 288.072 75.497 Q 287.342 75.395 286.736 75.179 A 4.967 4.967 0 0 1 285.962 74.829 A 5.974 5.974 0 0 1 283.814 72.803 A 7.634 7.634 0 0 1 282.907 70.728 A 9.28 9.28 0 0 1 282.715 69.873 A 19.661 19.661 0 0 1 282.427 66.856 A 21.949 21.949 0 0 1 282.422 66.406 A 41.141 41.141 0 0 1 282.5 63.831 A 32.394 32.394 0 0 1 282.666 61.987 A 52.015 52.015 0 0 0 282.773 61.031 Q 282.878 59.997 282.903 59.261 A 12.675 12.675 0 0 0 282.911 58.838 A 10.998 10.998 0 0 0 282.893 58.198 Q 282.849 57.439 282.691 56.983 Q 282.472 56.351 282.157 56.082 A 1.017 1.017 0 0 0 282.154 56.079 A 1.645 1.645 0 0 0 281.948 55.929 Q 281.74 55.803 281.543 55.786 Q 281.319 55.768 281.181 55.763 A 2.445 2.445 0 0 0 281.104 55.762 A 2.479 2.479 0 0 0 280.074 56.001 Q 279.692 56.174 279.299 56.473 A 6.524 6.524 0 0 0 278.638 57.056 Q 277.632 58.062 276.582 59.584 A 29.53 29.53 0 0 0 275.977 60.498 Q 274.61 62.647 273.169 65.381 Q 271.729 68.115 270.264 70.947 A 370.773 370.773 0 0 1 269.866 71.695 Q 269.294 72.766 268.872 73.535 A 13.492 13.492 0 0 1 268.492 74.188 Q 268.297 74.502 268.107 74.759 A 5.881 5.881 0 0 1 267.798 75.147 A 4.841 4.841 0 0 1 267.433 75.524 Q 267.11 75.82 266.797 75.977 A 2.34 2.34 0 0 1 265.832 76.219 A 2.749 2.749 0 0 1 265.723 76.221 A 2.913 2.913 0 0 1 264.922 76.117 A 2.09 2.09 0 0 1 263.794 75.342 A 3.145 3.145 0 0 1 263.266 74.202 Q 263.156 73.759 263.138 73.241 A 5.848 5.848 0 0 1 263.135 73.047 Q 263.135 72.315 263.184 71.094 A 353.849 353.849 0 0 0 263.233 69.812 A 464.762 464.762 0 0 0 263.282 68.408 A 102.968 102.968 0 0 1 263.404 65.77 A 113.603 113.603 0 0 1 263.428 65.381 Q 263.526 63.818 263.575 62.378 A 332.994 332.994 0 0 1 263.617 61.178 Q 263.638 60.629 263.659 60.137 A 194.424 194.424 0 0 1 263.672 59.815 A 82.423 82.423 0 0 0 263.694 59.287 Q 263.721 58.545 263.721 58.106 A 5.84 5.84 0 0 0 263.69 57.481 Q 263.604 56.687 263.282 56.275 A 1.749 1.749 0 0 0 262.977 55.966 A 1.152 1.152 0 0 0 262.256 55.713 A 1.771 1.771 0 0 0 261.768 55.786 Q 261.559 55.846 261.334 55.955 A 3.777 3.777 0 0 0 261.06 56.104 A 3.151 3.151 0 0 0 260.638 56.41 Q 260.133 56.836 259.522 57.617 A 15.889 15.889 0 0 0 259.157 58.107 Q 258.576 58.917 257.788 60.181 A 100.439 100.439 0 0 0 256.708 61.957 A 130.333 130.333 0 0 0 255.567 63.916 A 167.765 167.765 0 0 0 253.247 68.115 Q 252.261 69.962 251.51 71.483 A 81.875 81.875 0 0 0 251.27 71.973 A 14.586 14.586 0 0 1 250.693 73.024 Q 250.072 74.045 249.452 74.592 A 3.462 3.462 0 0 1 249.219 74.78 Q 248.194 75.537 247.217 75.537 A 3.708 3.708 0 0 1 246.404 75.454 Q 245.881 75.336 245.5 75.053 A 2.074 2.074 0 0 1 245.118 74.683 A 2.973 2.973 0 0 1 244.567 73.553 Q 244.455 73.118 244.437 72.605 A 5.632 5.632 0 0 1 244.434 72.412 A 2.423 2.423 0 0 1 244.435 72.353 Q 244.443 72.083 244.499 70.831 A 725.086 725.086 0 0 1 244.507 70.654 A 848.946 848.946 0 0 0 244.566 69.346 Q 244.617 68.173 244.678 66.724 A 1079.652 1079.652 0 0 1 244.782 64.325 A 1309.044 1309.044 0 0 1 244.898 61.768 Q 245.02 59.131 245.118 56.836 Q 245.153 55.959 245.087 55.182 A 10.395 10.395 0 0 0 245.02 54.59 Q 244.899 53.741 244.71 53.461 A 0.407 0.407 0 0 0 244.629 53.369 A 0.548 0.548 0 0 0 244.439 53.475 Q 244.037 53.789 243.222 54.983 A 29.115 29.115 0 0 0 243.091 55.176 Q 241.944 56.885 240.186 61.133 Z M 168.702 68.311 L 168.75 70.606 A 72.567 72.567 0 0 1 169.593 68.878 A 94.233 94.233 0 0 1 170.557 67.017 A 125.291 125.291 0 0 1 172.464 63.567 A 138.886 138.886 0 0 1 172.754 63.062 A 81.611 81.611 0 0 1 175.245 59.033 A 48.841 48.841 0 0 1 177.802 55.494 A 44.682 44.682 0 0 1 177.979 55.274 A 13.101 13.101 0 0 1 179.044 54.126 Q 179.629 53.571 180.218 53.177 A 6.764 6.764 0 0 1 180.835 52.808 A 7.456 7.456 0 0 1 181.978 52.318 Q 182.792 52.051 183.545 52.051 A 5.337 5.337 0 0 1 184.666 52.164 A 4.14 4.14 0 0 1 185.767 52.564 Q 186.719 53.076 187.329 53.955 A 6.193 6.193 0 0 1 188.03 55.302 A 7.596 7.596 0 0 1 188.257 56.006 Q 188.575 57.178 188.575 58.545 A 15.486 15.486 0 0 1 188.553 59.321 Q 188.506 60.256 188.355 61.548 A 33.107 33.107 0 0 0 188.143 64.716 A 37.397 37.397 0 0 0 188.135 65.479 A 21.91 21.91 0 0 0 188.257 67.798 A 10.479 10.479 0 0 0 188.428 68.884 A 7.905 7.905 0 0 0 188.697 69.849 Q 189.014 70.752 189.649 71.314 Q 190.284 71.875 191.309 71.875 A 4.458 4.458 0 0 0 192.975 71.542 A 5.699 5.699 0 0 0 193.653 71.216 A 10.101 10.101 0 0 0 195.063 70.249 A 12.824 12.824 0 0 0 195.948 69.458 Q 197.071 68.359 198.096 67.017 A 33.588 33.588 0 0 0 199.741 64.667 A 30.372 30.372 0 0 0 199.952 64.331 A 38.831 38.831 0 0 0 200.913 62.691 A 32.324 32.324 0 0 0 201.416 61.743 A 118.01 118.01 0 0 0 201.719 61.147 Q 202.149 60.291 202.442 59.668 Q 202.876 58.669 203.89 58.559 A 2.409 2.409 0 0 1 204.151 58.545 Q 204.981 58.545 205.469 59.131 A 2.202 2.202 0 0 1 205.816 59.692 A 1.823 1.823 0 0 1 205.957 60.4 A 1.839 1.839 0 0 1 205.811 61.133 Q 205.651 61.452 205.247 62.325 A 209.79 209.79 0 0 0 205.054 62.744 Q 204.624 63.679 203.965 64.842 A 45.968 45.968 0 0 1 203.54 65.576 A 40.346 40.346 0 0 1 202.298 67.541 A 50.273 50.273 0 0 1 201.319 68.945 A 24.369 24.369 0 0 1 198.511 72.192 A 14.862 14.862 0 0 1 195.44 74.497 A 13.9 13.9 0 0 1 195.191 74.634 A 7.82 7.82 0 0 1 191.455 75.586 A 8.684 8.684 0 0 1 190.015 75.474 Q 188.739 75.259 187.842 74.634 A 6.595 6.595 0 0 1 185.718 72.217 A 10.006 10.006 0 0 1 184.858 69.827 A 11.869 11.869 0 0 1 184.693 68.945 A 24.199 24.199 0 0 1 184.428 65.859 A 21.987 21.987 0 0 1 184.424 65.43 A 23.977 23.977 0 0 1 184.453 64.283 A 29.23 29.23 0 0 1 184.497 63.55 A 74.548 74.548 0 0 1 184.668 61.572 A 144.013 144.013 0 0 0 184.76 60.626 A 117.663 117.663 0 0 0 184.839 59.741 A 24.409 24.409 0 0 0 184.884 59.138 Q 184.898 58.903 184.905 58.693 A 11.531 11.531 0 0 0 184.913 58.301 Q 184.913 56.787 184.497 56.25 Q 184.082 55.713 183.545 55.713 A 1.68 1.68 0 0 0 182.942 55.835 Q 182.451 56.024 181.888 56.506 A 6.58 6.58 0 0 0 181.763 56.616 A 12.724 12.724 0 0 0 180.901 57.478 Q 180.487 57.932 180.057 58.474 A 24.016 24.016 0 0 0 179.663 58.984 A 34.871 34.871 0 0 0 178.428 60.748 A 43.898 43.898 0 0 0 177.466 62.28 A 174.17 174.17 0 0 0 175.342 65.918 Q 174.317 67.725 173.487 69.36 A 824.428 824.428 0 0 0 173.09 70.143 Q 172.522 71.265 172.12 72.07 A 13.48 13.48 0 0 1 171.541 73.118 Q 170.799 74.32 170.044 74.829 A 5.564 5.564 0 0 1 169.41 75.203 Q 168.735 75.537 168.164 75.537 Q 166.666 75.537 165.861 74.364 A 3.293 3.293 0 0 1 165.845 74.341 Q 165.039 73.145 165.039 71.436 L 165.039 68.359 A 6502.397 6502.397 0 0 1 165.046 59.345 A 5620.963 5620.963 0 0 1 165.064 50.757 Q 165.088 42.383 165.308 35.181 A 268.484 268.484 0 0 1 165.601 28.32 A 196.887 196.887 0 0 1 166.04 22.144 A 88.25 88.25 0 0 1 166.497 18.008 Q 166.772 15.979 167.126 14.211 A 45.023 45.023 0 0 1 167.579 12.183 Q 168.604 8.057 170.191 5.811 A 6.13 6.13 0 0 1 171.348 4.555 A 4.383 4.383 0 0 1 174.17 3.565 A 6.209 6.209 0 0 1 175.899 3.795 A 5.002 5.002 0 0 1 177.637 4.688 A 7.422 7.422 0 0 1 179.248 6.483 A 9.673 9.673 0 0 1 179.932 7.739 A 14.746 14.746 0 0 1 180.728 9.968 A 20.027 20.027 0 0 1 181.202 12.232 A 34.781 34.781 0 0 1 181.574 16.401 A 39.815 39.815 0 0 1 181.592 17.627 A 60.601 60.601 0 0 1 180.542 28.931 Q 179.493 34.473 177.735 39.746 Q 175.977 45.02 173.633 50.025 Q 171.289 55.029 168.702 59.766 L 168.702 61.865 L 168.702 64.307 L 168.702 66.602 L 168.702 68.311 Z M 345.215 60.547 A 45.721 45.721 0 0 0 346.188 64.38 Q 348.02 70.386 350.775 71.548 A 3.502 3.502 0 0 0 352.149 71.826 A 4.92 4.92 0 0 0 354.548 71.187 A 6.732 6.732 0 0 0 355.518 70.532 A 16.04 16.04 0 0 0 357.607 68.503 A 19.453 19.453 0 0 0 358.521 67.359 A 28.473 28.473 0 0 0 360.987 63.379 A 91.815 91.815 0 0 0 361.737 61.88 Q 362.1 61.138 362.403 60.479 A 46.486 46.486 0 0 0 362.745 59.717 Q 363.233 58.545 364.454 58.545 Q 365.235 58.545 365.772 59.131 A 2.235 2.235 0 0 1 366.117 59.618 A 1.691 1.691 0 0 1 366.309 60.4 A 1.764 1.764 0 0 1 366.277 60.745 A 1.338 1.338 0 0 1 366.163 61.084 A 26.094 26.094 0 0 1 365.972 61.534 Q 365.755 62.035 365.453 62.684 A 87.757 87.757 0 0 1 365.162 63.306 A 30.243 30.243 0 0 1 364.429 64.746 A 39.844 39.844 0 0 1 363.55 66.284 A 50.537 50.537 0 0 1 361.998 68.706 A 58.12 58.12 0 0 1 361.426 69.531 Q 360.254 71.192 358.838 72.51 A 14.774 14.774 0 0 1 356.424 74.346 A 13.433 13.433 0 0 1 355.835 74.683 A 6.956 6.956 0 0 1 352.491 75.537 Q 349.219 75.537 346.875 73.267 A 10.849 10.849 0 0 1 345.339 71.357 Q 343.944 69.2 342.823 65.772 A 40.536 40.536 0 0 1 341.371 68.585 Q 339.87 71.219 338.348 72.744 A 11.126 11.126 0 0 1 338.086 72.998 Q 335.694 75.244 332.911 75.244 Q 331.446 75.244 330.079 74.78 A 5.88 5.88 0 0 1 327.686 73.242 A 7.093 7.093 0 0 1 326.656 71.841 A 9.576 9.576 0 0 1 326.026 70.484 Q 325.503 69.095 325.411 67.192 A 17.3 17.3 0 0 1 325.391 66.358 A 16.908 16.908 0 0 1 325.896 62.167 A 14.836 14.836 0 0 1 326.563 60.156 A 17.485 17.485 0 0 1 328.295 56.931 A 14.927 14.927 0 0 1 329.59 55.298 Q 331.446 53.272 333.716 52.149 Q 335.987 51.025 338.233 51.025 A 1.777 1.777 0 0 1 339.502 51.538 Q 340.039 52.051 340.039 52.832 Q 340.039 53.516 339.6 54.053 A 1.74 1.74 0 0 1 338.496 54.677 A 2.252 2.252 0 0 1 338.428 54.688 A 10.034 10.034 0 0 0 336.817 55.047 A 13.706 13.706 0 0 0 335.303 55.615 Q 333.643 56.348 332.251 57.739 Q 330.86 59.131 329.956 61.279 A 10.977 10.977 0 0 0 329.279 63.635 Q 329.053 64.917 329.053 66.406 A 9.688 9.688 0 0 0 329.151 67.827 Q 329.265 68.596 329.513 69.222 A 4.435 4.435 0 0 0 330.054 70.215 A 3.254 3.254 0 0 0 332.435 71.554 A 4.807 4.807 0 0 0 332.959 71.582 A 3.347 3.347 0 0 0 333.817 71.465 Q 334.183 71.368 334.568 71.191 A 5.599 5.599 0 0 0 334.62 71.167 A 3.59 3.59 0 0 0 335.238 70.787 Q 335.843 70.332 336.499 69.531 Q 337.478 68.338 338.644 66.164 A 41.335 41.335 0 0 0 338.697 66.065 Q 339.5 64.555 340.425 62.407 A 93.728 93.728 0 0 0 341.358 60.156 A 116.877 116.877 0 0 1 340.66 56.144 Q 340.229 53.403 339.844 50.244 A 89.606 89.606 0 0 1 339.331 44.299 A 121.604 121.604 0 0 1 339.161 37.695 A 103.599 103.599 0 0 1 339.27 33.003 A 117.921 117.921 0 0 1 339.356 31.372 A 81.528 81.528 0 0 1 339.991 24.927 A 55.015 55.015 0 0 1 340.815 20.381 A 48.578 48.578 0 0 1 341.163 18.945 Q 341.895 16.113 342.945 13.965 A 13.235 13.235 0 0 1 343.924 12.272 Q 344.609 11.277 345.411 10.571 A 4.745 4.745 0 0 1 348.633 9.326 Q 350.245 9.326 351.368 10.205 Q 352.491 11.084 353.199 12.647 Q 353.836 14.053 354.177 15.975 A 20.713 20.713 0 0 1 354.248 16.406 A 28.209 28.209 0 0 1 354.525 19.017 A 36.435 36.435 0 0 1 354.59 21.24 A 66.558 66.558 0 0 1 353.614 32.568 A 111.763 111.763 0 0 1 351.55 42.107 A 101.126 101.126 0 0 1 351.197 43.408 A 136.327 136.327 0 0 1 349.354 49.5 A 110.758 110.758 0 0 1 348.145 52.979 A 258.659 258.659 0 0 1 346.978 56.103 Q 346.039 58.563 345.215 60.547 Z M 523.877 61.133 A 65.683 65.683 0 0 0 523.772 61.345 Q 523.601 61.69 523.281 62.341 A 920.339 920.339 0 0 0 523.072 62.769 A 31.851 31.851 0 0 1 522.566 63.754 Q 522.277 64.294 521.937 64.89 A 59.1 59.1 0 0 1 521.509 65.625 A 40.346 40.346 0 0 1 520.267 67.59 A 50.273 50.273 0 0 1 519.288 68.994 A 22.31 22.31 0 0 1 516.455 72.217 A 15.449 15.449 0 0 1 513.086 74.634 A 8.057 8.057 0 0 1 509.278 75.586 A 7.323 7.323 0 0 1 506.746 75.162 A 6.5 6.5 0 0 1 504.517 73.779 A 10.286 10.286 0 0 1 501.961 69.948 A 12.381 12.381 0 0 1 501.709 69.238 A 15.95 15.95 0 0 1 499.766 71.872 A 12.903 12.903 0 0 1 497.754 73.657 A 9.832 9.832 0 0 1 495.908 74.709 A 6.951 6.951 0 0 1 493.164 75.293 Q 491.358 75.293 489.893 74.634 Q 488.428 73.975 487.403 72.778 A 8.468 8.468 0 0 1 485.983 70.416 A 9.848 9.848 0 0 1 485.816 69.971 Q 485.254 68.359 485.254 66.455 A 19.112 19.112 0 0 1 485.539 63.083 A 14.442 14.442 0 0 1 486.548 59.741 A 16.963 16.963 0 0 1 488.228 56.774 A 14.001 14.001 0 0 1 489.844 54.883 Q 491.846 52.93 494.263 51.953 A 13.892 13.892 0 0 1 496.783 51.191 A 11.083 11.083 0 0 1 498.926 50.977 A 9.649 9.649 0 0 1 500.638 51.123 A 8.016 8.016 0 0 1 501.709 51.392 Q 502.8 51.748 503.621 52.159 A 9.375 9.375 0 0 1 503.882 52.295 Q 504.776 52.778 505.263 53.189 A 3.846 3.846 0 0 1 505.274 53.198 A 123.791 123.791 0 0 1 505.389 53.296 Q 505.768 53.619 505.811 53.662 A 2.555 2.555 0 0 1 506.146 54.16 A 1.803 1.803 0 0 1 506.348 54.981 A 1.807 1.807 0 0 1 505.846 56.237 A 2.349 2.349 0 0 1 505.811 56.275 Q 505.274 56.836 504.541 56.836 A 1.872 1.872 0 0 1 503.765 56.678 A 1.819 1.819 0 0 1 503.223 56.299 Q 503.143 56.219 502.901 56.025 A 18.894 18.894 0 0 0 502.784 55.933 A 3.702 3.702 0 0 0 502.5 55.732 Q 502.227 55.557 501.856 55.371 Q 501.311 55.099 500.577 54.89 A 10.598 10.598 0 0 0 500.464 54.859 A 5.976 5.976 0 0 0 499.604 54.694 Q 499.16 54.64 498.665 54.639 A 9.53 9.53 0 0 0 498.633 54.639 Q 497.12 54.639 495.411 55.322 A 8.869 8.869 0 0 0 492.827 56.933 A 10.551 10.551 0 0 0 492.286 57.446 A 10.848 10.848 0 0 0 490.714 59.503 A 13.977 13.977 0 0 0 489.917 61.06 A 10.869 10.869 0 0 0 489.178 63.575 Q 488.979 64.722 488.966 66.025 A 18.4 18.4 0 0 0 488.965 66.211 A 9.337 9.337 0 0 0 489.161 68.091 A 5.232 5.232 0 0 0 489.81 69.769 A 5.006 5.006 0 0 0 489.844 69.824 Q 490.332 70.606 491.163 71.094 A 3.378 3.378 0 0 0 492.155 71.475 Q 492.58 71.569 493.072 71.58 A 5.935 5.935 0 0 0 493.213 71.582 Q 494.092 71.582 495.24 70.996 A 6.296 6.296 0 0 0 496.423 70.202 Q 496.908 69.794 497.375 69.261 A 10.503 10.503 0 0 0 497.437 69.19 Q 498.42 68.046 499.232 66.346 A 18.414 18.414 0 0 0 499.341 66.113 Q 500.142 64.374 500.493 62.034 A 21.42 21.42 0 0 0 500.538 61.719 Q 500.635 61.035 501.172 60.571 Q 501.709 60.108 502.442 60.108 A 1.575 1.575 0 0 1 503.54 60.549 A 2.121 2.121 0 0 1 503.638 60.645 A 2.107 2.107 0 0 1 504.035 61.218 A 1.851 1.851 0 0 1 504.2 61.865 Q 504.237 62.576 504.332 63.73 A 153.047 153.047 0 0 0 504.395 64.478 A 16.008 16.008 0 0 0 505.054 67.822 A 8.522 8.522 0 0 0 505.995 69.887 A 7.602 7.602 0 0 0 506.592 70.703 A 3.351 3.351 0 0 0 508.826 71.888 A 4.803 4.803 0 0 0 509.424 71.924 A 4.554 4.554 0 0 0 511.222 71.544 A 5.649 5.649 0 0 0 511.744 71.289 A 10.066 10.066 0 0 0 513.159 70.334 A 12.624 12.624 0 0 0 513.99 69.605 A 18.337 18.337 0 0 0 515.583 67.865 A 21.288 21.288 0 0 0 516.089 67.212 A 34.46 34.46 0 0 0 517.92 64.502 A 39.433 39.433 0 0 0 518.882 62.831 A 32.944 32.944 0 0 0 519.385 61.865 A 157.138 157.138 0 0 0 519.834 60.961 Q 520.009 60.605 520.166 60.281 A 83.015 83.015 0 0 0 520.459 59.668 A 1.967 1.967 0 0 1 520.836 59.107 A 1.794 1.794 0 0 1 521.167 58.838 Q 521.631 58.545 522.168 58.545 A 1.827 1.827 0 0 1 522.845 58.666 A 1.66 1.66 0 0 1 523.511 59.155 Q 524.024 59.766 524.024 60.449 A 1.686 1.686 0 0 1 523.92 61.026 A 1.983 1.983 0 0 1 523.877 61.133 Z M 583.643 61.133 A 65.683 65.683 0 0 0 583.538 61.345 Q 583.367 61.69 583.047 62.341 A 920.339 920.339 0 0 0 582.837 62.769 A 31.851 31.851 0 0 1 582.331 63.754 Q 582.043 64.294 581.702 64.89 A 59.1 59.1 0 0 1 581.275 65.625 A 40.346 40.346 0 0 1 580.032 67.59 A 50.273 50.273 0 0 1 579.053 68.994 A 22.31 22.31 0 0 1 576.221 72.217 A 15.449 15.449 0 0 1 572.852 74.634 A 8.057 8.057 0 0 1 569.043 75.586 A 7.323 7.323 0 0 1 566.512 75.162 A 6.5 6.5 0 0 1 564.283 73.779 A 10.286 10.286 0 0 1 561.727 69.948 A 12.381 12.381 0 0 1 561.475 69.238 A 15.95 15.95 0 0 1 559.532 71.872 A 12.903 12.903 0 0 1 557.52 73.657 A 9.832 9.832 0 0 1 555.673 74.709 A 6.951 6.951 0 0 1 552.93 75.293 Q 551.123 75.293 549.659 74.634 Q 548.194 73.975 547.168 72.778 A 8.468 8.468 0 0 1 545.749 70.416 A 9.848 9.848 0 0 1 545.581 69.971 Q 545.02 68.359 545.02 66.455 A 19.112 19.112 0 0 1 545.304 63.083 A 14.442 14.442 0 0 1 546.314 59.741 A 16.963 16.963 0 0 1 547.994 56.774 A 14.001 14.001 0 0 1 549.61 54.883 Q 551.612 52.93 554.029 51.953 A 13.892 13.892 0 0 1 556.549 51.191 A 11.083 11.083 0 0 1 558.692 50.977 A 9.649 9.649 0 0 1 560.403 51.123 A 8.016 8.016 0 0 1 561.475 51.392 Q 562.566 51.748 563.387 52.159 A 9.375 9.375 0 0 1 563.648 52.295 Q 564.541 52.778 565.029 53.189 A 3.846 3.846 0 0 1 565.039 53.198 A 123.791 123.791 0 0 1 565.155 53.296 Q 565.534 53.619 565.577 53.662 A 2.555 2.555 0 0 1 565.912 54.16 A 1.803 1.803 0 0 1 566.114 54.981 A 1.807 1.807 0 0 1 565.612 56.237 A 2.349 2.349 0 0 1 565.577 56.275 Q 565.039 56.836 564.307 56.836 A 1.872 1.872 0 0 1 563.531 56.678 A 1.819 1.819 0 0 1 562.989 56.299 Q 562.909 56.219 562.666 56.025 A 18.894 18.894 0 0 0 562.549 55.933 A 3.702 3.702 0 0 0 562.265 55.732 Q 561.992 55.557 561.621 55.371 Q 561.077 55.099 560.342 54.89 A 10.598 10.598 0 0 0 560.23 54.859 A 5.976 5.976 0 0 0 559.369 54.694 Q 558.926 54.64 558.431 54.639 A 9.53 9.53 0 0 0 558.399 54.639 Q 556.885 54.639 555.176 55.322 A 8.869 8.869 0 0 0 552.592 56.933 A 10.551 10.551 0 0 0 552.051 57.446 A 10.848 10.848 0 0 0 550.48 59.503 A 13.977 13.977 0 0 0 549.683 61.06 A 10.869 10.869 0 0 0 548.944 63.575 Q 548.745 64.722 548.732 66.025 A 18.4 18.4 0 0 0 548.731 66.211 A 9.337 9.337 0 0 0 548.926 68.091 A 5.232 5.232 0 0 0 549.576 69.769 A 5.006 5.006 0 0 0 549.61 69.824 Q 550.098 70.606 550.928 71.094 A 3.378 3.378 0 0 0 551.92 71.475 Q 552.346 71.569 552.837 71.58 A 5.935 5.935 0 0 0 552.979 71.582 Q 553.858 71.582 555.005 70.996 A 6.296 6.296 0 0 0 556.188 70.202 Q 556.674 69.794 557.14 69.261 A 10.503 10.503 0 0 0 557.203 69.19 Q 558.186 68.046 558.998 66.346 A 18.414 18.414 0 0 0 559.107 66.113 Q 559.908 64.374 560.258 62.034 A 21.42 21.42 0 0 0 560.303 61.719 Q 560.401 61.035 560.938 60.571 Q 561.475 60.108 562.207 60.108 A 1.575 1.575 0 0 1 563.306 60.549 A 2.121 2.121 0 0 1 563.404 60.645 A 2.107 2.107 0 0 1 563.8 61.218 A 1.851 1.851 0 0 1 563.965 61.865 Q 564.003 62.576 564.097 63.73 A 153.047 153.047 0 0 0 564.161 64.478 A 16.008 16.008 0 0 0 564.82 67.822 A 8.522 8.522 0 0 0 565.76 69.887 A 7.602 7.602 0 0 0 566.358 70.703 A 3.351 3.351 0 0 0 568.592 71.888 A 4.803 4.803 0 0 0 569.19 71.924 A 4.554 4.554 0 0 0 570.988 71.544 A 5.649 5.649 0 0 0 571.509 71.289 A 10.066 10.066 0 0 0 572.924 70.334 A 12.624 12.624 0 0 0 573.755 69.605 A 18.337 18.337 0 0 0 575.348 67.865 A 21.288 21.288 0 0 0 575.855 67.212 A 34.46 34.46 0 0 0 577.686 64.502 A 39.433 39.433 0 0 0 578.647 62.831 A 32.944 32.944 0 0 0 579.151 61.865 A 157.138 157.138 0 0 0 579.599 60.961 Q 579.775 60.605 579.931 60.281 A 83.015 83.015 0 0 0 580.225 59.668 A 1.967 1.967 0 0 1 580.601 59.107 A 1.794 1.794 0 0 1 580.933 58.838 Q 581.397 58.545 581.934 58.545 A 1.827 1.827 0 0 1 582.61 58.666 A 1.66 1.66 0 0 1 583.277 59.155 Q 583.789 59.766 583.789 60.449 A 1.686 1.686 0 0 1 583.685 61.026 A 1.983 1.983 0 0 1 583.643 61.133 Z M 155.811 69.385 Q 154.59 69.385 153.663 69.19 A 14.324 14.324 0 0 1 151.905 71.9 A 11.573 11.573 0 0 1 149.537 74.072 A 11.328 11.328 0 0 1 146.842 75.433 A 12.788 12.788 0 0 1 146.534 75.537 Q 144.873 76.074 142.92 76.074 A 11.362 11.362 0 0 1 140.212 75.762 A 9.794 9.794 0 0 1 138.721 75.269 A 10.151 10.151 0 0 1 135.401 73.023 A 9.88 9.88 0 0 1 133.382 69.992 A 11.474 11.474 0 0 1 133.204 69.556 A 11.716 11.716 0 0 1 132.484 66.428 A 14.242 14.242 0 0 1 132.422 65.088 A 14.701 14.701 0 0 1 132.653 62.421 A 10.861 10.861 0 0 1 133.545 59.644 A 17.528 17.528 0 0 1 134.734 57.55 A 13.063 13.063 0 0 1 136.133 55.786 Q 137.598 54.248 139.063 53.491 A 12.768 12.768 0 0 1 139.75 53.16 Q 140.412 52.867 140.879 52.776 A 2.006 2.006 0 0 1 141.26 52.734 Q 141.838 52.734 142.214 52.947 A 1.228 1.228 0 0 1 142.505 53.174 A 1.483 1.483 0 0 1 142.878 53.907 A 2.153 2.153 0 0 1 142.92 54.346 Q 142.92 55.035 142.567 55.438 A 1.295 1.295 0 0 1 142.408 55.591 Q 141.967 55.948 141.328 56.286 A 10.167 10.167 0 0 1 141.114 56.397 A 7.547 7.547 0 0 0 140.411 56.799 Q 140.064 57.023 139.699 57.302 A 13.013 13.013 0 0 0 139.454 57.495 A 7.969 7.969 0 0 0 138.415 58.509 A 10.075 10.075 0 0 0 137.818 59.277 A 8.805 8.805 0 0 0 137.014 60.691 A 11.286 11.286 0 0 0 136.573 61.817 Q 136.084 63.281 136.084 65.088 A 9.379 9.379 0 0 0 136.326 67.245 A 8.308 8.308 0 0 0 136.573 68.091 A 7 7 0 0 0 137.495 69.881 A 6.355 6.355 0 0 0 137.989 70.484 Q 138.916 71.484 140.186 72.046 Q 141.455 72.608 143.018 72.608 A 9.885 9.885 0 0 0 145.047 72.41 Q 146.425 72.121 147.491 71.41 A 6.267 6.267 0 0 0 147.632 71.314 A 8.586 8.586 0 0 0 150.44 68.018 A 12.754 12.754 0 0 1 145.704 63.721 Q 143.848 60.938 143.848 57.471 A 9.456 9.456 0 0 1 144.037 55.528 Q 144.352 54.028 145.191 52.93 A 4.516 4.516 0 0 1 146.583 51.698 Q 147.529 51.172 148.731 51.172 A 5.152 5.152 0 0 1 151.221 51.807 Q 152.393 52.442 153.296 53.809 Q 154.057 54.96 154.558 56.664 A 16.754 16.754 0 0 1 154.737 57.324 Q 155.193 59.151 155.262 61.578 A 31.017 31.017 0 0 1 155.274 62.451 Q 155.274 64.014 154.883 65.723 A 3.558 3.558 0 0 0 155.469 65.772 L 156.104 65.772 A 12.117 12.117 0 0 0 157.679 65.674 A 9.105 9.105 0 0 0 159.082 65.381 A 7.802 7.802 0 0 0 161.475 64.209 A 7.989 7.989 0 0 0 162.906 62.859 A 9.641 9.641 0 0 0 163.404 62.207 Q 164.258 60.986 165.039 59.375 Q 165.186 59.082 165.674 58.814 A 2.244 2.244 0 0 1 166.178 58.608 A 1.831 1.831 0 0 1 166.651 58.545 A 1.6 1.6 0 0 1 167.489 58.787 A 2.278 2.278 0 0 1 167.847 59.058 A 1.698 1.698 0 0 1 168.403 60.241 A 2.324 2.324 0 0 1 168.409 60.4 A 1.83 1.83 0 0 1 168.361 60.803 Q 168.32 60.986 168.243 61.182 A 3.231 3.231 0 0 1 168.213 61.255 A 16.093 16.093 0 0 1 168.018 61.701 A 13.009 13.009 0 0 1 167.823 62.109 A 20.007 20.007 0 0 1 165.894 64.917 Q 164.795 66.26 163.306 67.261 A 12.64 12.64 0 0 1 160.644 68.613 A 14.499 14.499 0 0 1 159.961 68.848 Q 158.106 69.434 155.811 69.385 Z M 525.22 58.447 A 61.322 61.322 0 0 0 525.275 58.319 Q 525.655 57.419 525.928 56.69 A 27.723 27.723 0 0 0 527.222 59.4 A 83.736 83.736 0 0 1 527.57 60.042 A 74.579 74.579 0 0 1 528.54 61.914 A 18.796 18.796 0 0 1 528.634 62.105 A 17.016 17.016 0 0 1 529.541 64.356 Q 529.932 65.576 529.932 66.797 Q 529.932 67.163 529.846 67.615 A 7.511 7.511 0 0 1 529.712 68.189 A 4.941 4.941 0 0 1 529.004 69.702 A 3.872 3.872 0 0 1 528.626 70.168 A 4.381 4.381 0 0 1 527.71 70.899 A 2.933 2.933 0 0 1 527.649 70.935 Q 527.193 71.196 526.625 71.306 A 4.684 4.684 0 0 1 525.733 71.387 A 3.469 3.469 0 0 1 524.585 71.192 Q 524.024 70.996 523.609 70.728 Q 523.349 70.56 523.138 70.411 A 9.475 9.475 0 0 1 522.901 70.239 Q 522.674 70.069 522.594 69.973 A 0.274 0.274 0 0 1 522.559 69.922 A 1.819 1.819 0 0 0 522.017 69.543 A 1.872 1.872 0 0 0 521.241 69.385 A 1.709 1.709 0 0 0 520.486 69.555 A 1.993 1.993 0 0 0 519.947 69.946 Q 519.385 70.508 519.385 71.24 A 1.572 1.572 0 0 0 519.437 71.644 A 1.749 1.749 0 0 0 519.678 72.168 Q 521.436 74.805 524.244 75.952 A 14.933 14.933 0 0 0 525.768 76.481 A 16.407 16.407 0 0 0 530.323 77.1 A 17.383 17.383 0 0 0 531.826 77.036 A 14.349 14.349 0 0 0 535.352 76.294 A 17.492 17.492 0 0 0 539.576 74.146 Q 541.504 72.803 543.067 71.094 A 32.9 32.9 0 0 0 543.546 70.558 A 29.252 29.252 0 0 0 545.826 67.603 A 37.406 37.406 0 0 0 546.675 66.28 A 30.874 30.874 0 0 0 547.876 64.136 Q 548.731 62.451 549.268 61.133 A 1.839 1.839 0 0 0 549.414 60.4 A 1.906 1.906 0 0 0 549.298 59.741 A 2.2 2.2 0 0 0 548.951 59.131 A 1.473 1.473 0 0 0 548.228 58.627 A 1.881 1.881 0 0 0 547.657 58.545 Q 546.997 58.545 546.558 59.177 A 2.847 2.847 0 0 0 546.289 59.668 A 41.577 41.577 0 0 1 545.944 60.432 A 46.272 46.272 0 0 1 543.75 64.575 A 26.416 26.416 0 0 1 540.406 69.067 Q 538.526 71.094 536.182 72.363 Q 533.838 73.633 531.055 73.633 L 530.567 73.633 A 2.484 2.484 0 0 1 530.079 73.584 A 8.922 8.922 0 0 0 530.886 72.979 A 7.042 7.042 0 0 0 532.813 70.459 A 9.46 9.46 0 0 0 533.643 66.553 Q 533.643 64.99 533.081 63.428 A 28.263 28.263 0 0 0 532.441 61.81 A 37.009 37.009 0 0 0 531.641 60.083 A 162.588 162.588 0 0 0 530.701 58.209 A 218.947 218.947 0 0 0 529.639 56.152 A 30.734 30.734 0 0 1 529.637 56.148 Q 529.072 55.067 528.507 53.826 A 65.312 65.312 0 0 1 527.393 51.221 A 174.168 174.168 0 0 0 527.405 51.164 Q 527.58 50.321 527.704 49.683 A 63.231 63.231 0 0 0 527.784 49.268 A 8.462 8.462 0 0 0 527.93 47.705 A 5.19 5.19 0 0 0 527.845 46.744 A 3.776 3.776 0 0 0 527.271 45.313 Q 526.612 44.336 525.489 44.336 Q 524.268 44.336 523.584 45.337 Q 522.901 46.338 522.901 47.949 A 8.726 8.726 0 0 0 523.047 49.561 A 11.825 11.825 0 0 0 523.143 50.019 Q 523.215 50.331 523.311 50.686 A 26.193 26.193 0 0 0 523.536 51.465 A 33.364 33.364 0 0 1 523.511 51.59 A 30.624 30.624 0 0 1 522.535 55.298 Q 522.153 56.442 521.514 57.825 A 41.793 41.793 0 0 1 520.655 59.57 A 11.601 11.601 0 0 0 520.648 59.583 Q 520.507 59.867 520.444 60.033 A 1.277 1.277 0 0 0 520.411 60.132 Q 520.362 60.303 520.362 60.547 A 1.68 1.68 0 0 0 520.85 61.743 A 1.585 1.585 0 0 0 521.594 62.184 A 2.17 2.17 0 0 0 522.168 62.256 A 2.129 2.129 0 0 0 522.391 62.245 A 1.565 1.565 0 0 0 523.365 61.792 Q 523.656 61.5 523.938 61.064 A 7.57 7.57 0 0 0 524.268 60.498 A 41.177 41.177 0 0 0 524.654 59.706 A 34.227 34.227 0 0 0 525.22 58.447 Z M 585.401 54.688 Q 585.205 56.006 584.913 57.153 A 48.681 48.681 0 0 1 584.661 58.101 Q 584.542 58.531 584.427 58.909 A 26.573 26.573 0 0 1 584.351 59.155 A 55.181 55.181 0 0 1 584.221 59.563 Q 584.034 60.144 583.887 60.547 A 18.82 18.82 0 0 1 583.841 60.674 Q 583.686 61.09 583.643 61.133 Q 583.209 62.132 582.195 62.242 A 2.409 2.409 0 0 1 581.934 62.256 A 1.8 1.8 0 0 1 580.925 61.943 A 2.422 2.422 0 0 1 580.664 61.743 A 1.678 1.678 0 0 1 580.191 61.082 A 1.74 1.74 0 0 1 580.079 60.449 A 1.417 1.417 0 0 1 580.086 60.296 Q 580.104 60.13 580.165 60.027 A 0.395 0.395 0 0 1 580.176 60.01 A 1.308 1.308 0 0 0 580.227 59.925 Q 580.32 59.76 580.469 59.424 A 4.712 4.712 0 0 0 580.573 59.168 Q 580.684 58.872 580.819 58.428 A 27.413 27.413 0 0 0 580.957 57.959 A 19.583 19.583 0 0 0 581.113 57.376 Q 581.36 56.397 581.69 54.785 A 30.655 30.655 0 0 1 580.091 54.742 A 33.536 33.536 0 0 1 579.981 54.736 A 5.487 5.487 0 0 1 578.734 54.527 A 4.921 4.921 0 0 1 578.345 54.395 Q 577.588 54.102 577.1 53.467 A 2.157 2.157 0 0 1 576.75 52.765 Q 576.659 52.463 576.628 52.103 A 4.587 4.587 0 0 1 576.612 51.709 A 4.098 4.098 0 0 1 576.657 51.133 Q 576.757 50.437 577.076 49.463 Q 577.539 48.047 578.321 46.68 A 12.451 12.451 0 0 1 579.374 45.114 A 10.445 10.445 0 0 1 580.079 44.312 A 4.458 4.458 0 0 1 580.658 43.806 Q 581.002 43.558 581.345 43.434 A 2.014 2.014 0 0 1 582.032 43.311 Q 583.155 43.311 583.863 44.141 A 5.483 5.483 0 0 1 584.655 45.388 A 6.912 6.912 0 0 1 584.961 46.167 A 13.78 13.78 0 0 1 585.517 48.641 A 15.007 15.007 0 0 1 585.523 48.682 Q 585.694 50 585.694 50.977 A 54.01 54.01 0 0 0 587.329 50.952 A 54.63 54.63 0 0 1 588.117 50.934 A 47.322 47.322 0 0 1 588.868 50.928 A 10.162 10.162 0 0 1 590.478 51.047 Q 592.109 51.309 593.116 52.149 Q 594.58 53.369 594.58 56.152 A 19.029 19.029 0 0 1 594.498 57.892 A 21.821 21.821 0 0 1 594.434 58.496 A 82.614 82.614 0 0 1 594.14 60.689 A 90.615 90.615 0 0 1 594.092 61.011 A 74.032 74.032 0 0 0 593.75 63.574 A 21.718 21.718 0 0 0 593.604 66.065 A 10.431 10.431 0 0 0 593.67 67.273 Q 593.741 67.88 593.888 68.391 A 5.047 5.047 0 0 0 594.092 68.97 A 6.457 6.457 0 0 0 594.566 69.885 Q 594.88 70.383 595.262 70.752 A 3.999 3.999 0 0 0 595.313 70.801 A 4.647 4.647 0 0 0 596.119 71.41 A 3.766 3.766 0 0 0 596.875 71.753 A 6.121 6.121 0 0 0 597.574 71.937 Q 597.937 72.008 598.268 72.02 A 3.581 3.581 0 0 0 598.389 72.022 A 6.39 6.39 0 0 0 601.817 71.012 A 8.08 8.08 0 0 0 602.344 70.654 A 18.338 18.338 0 0 0 605.342 67.861 A 20.788 20.788 0 0 0 605.762 67.359 A 31.79 31.79 0 0 0 608.57 63.281 A 117.405 117.405 0 0 0 609.445 61.746 Q 609.871 60.985 610.233 60.306 A 60.626 60.626 0 0 0 610.645 59.522 Q 610.889 59.082 611.329 58.838 Q 611.768 58.594 612.256 58.594 A 2.203 2.203 0 0 1 612.835 58.666 A 1.563 1.563 0 0 1 613.623 59.155 A 2.045 2.045 0 0 1 613.982 59.727 A 1.772 1.772 0 0 1 614.112 60.4 A 2.103 2.103 0 0 1 614.05 60.919 A 1.784 1.784 0 0 1 613.916 61.279 Q 612.868 63.148 611.5 65.464 A 310.604 310.604 0 0 1 611.304 65.796 A 32.346 32.346 0 0 1 607.911 70.508 A 19.622 19.622 0 0 1 603.638 74.219 A 9.463 9.463 0 0 1 598.438 75.733 Q 596.68 75.733 595.118 75.073 A 7.729 7.729 0 0 1 592.408 73.169 A 8.586 8.586 0 0 1 591.101 71.282 A 10.831 10.831 0 0 1 590.577 70.093 Q 589.893 68.262 589.893 65.967 A 24.476 24.476 0 0 1 590.381 61.109 A 24.759 24.759 0 0 0 590.812 58.031 A 20.862 20.862 0 0 0 590.87 56.494 Q 590.87 55.903 590.701 55.5 A 1.401 1.401 0 0 0 590.454 55.103 A 1 1 0 0 0 590.12 54.868 Q 589.62 54.639 588.629 54.639 A 5.419 5.419 0 0 0 588.623 54.639 L 587.134 54.639 A 29.726 29.726 0 0 0 586.298 54.651 A 36.801 36.801 0 0 0 585.401 54.688 Z M 306.592 69.385 A 7.594 7.594 0 0 0 309.229 71.655 Q 310.718 72.445 312.833 72.505 A 12.41 12.41 0 0 0 313.184 72.51 A 8.592 8.592 0 0 0 316.526 71.864 A 8.253 8.253 0 0 0 317.53 71.362 A 14.061 14.061 0 0 0 320.582 68.922 A 16.247 16.247 0 0 0 321.094 68.359 A 23.85 23.85 0 0 0 323.734 64.636 A 26.568 26.568 0 0 0 323.975 64.209 Q 325.245 61.914 326.27 59.619 A 2.021 2.021 0 0 1 326.542 59.175 A 1.619 1.619 0 0 1 326.954 58.814 A 1.836 1.836 0 0 1 327.93 58.545 A 1.906 1.906 0 0 1 328.585 58.653 A 1.655 1.655 0 0 1 329.273 59.131 A 2.213 2.213 0 0 1 329.619 59.653 A 1.752 1.752 0 0 1 329.786 60.4 Q 329.786 60.645 329.737 60.816 A 1.835 1.835 0 0 1 329.676 60.993 A 2.5 2.5 0 0 1 329.591 61.181 Q 326.221 68.604 322.242 72.363 A 14.632 14.632 0 0 1 318.28 75.084 A 12.603 12.603 0 0 1 313.233 76.221 Q 310.01 76.221 307.666 74.976 A 11.918 11.918 0 0 1 304.511 72.583 A 11.164 11.164 0 0 1 303.809 71.753 A 13.583 13.583 0 0 1 301.563 67.285 A 17.575 17.575 0 0 1 300.83 62.305 Q 300.83 59.815 301.441 57.715 A 12.521 12.521 0 0 1 302.355 55.411 A 10.485 10.485 0 0 1 303.199 54.053 A 8.683 8.683 0 0 1 305.167 52.094 A 8.071 8.071 0 0 1 305.933 51.611 Q 307.52 50.733 309.424 50.733 A 5.638 5.638 0 0 1 311.543 51.154 A 6.452 6.452 0 0 1 311.646 51.196 A 6.375 6.375 0 0 1 313.623 52.515 A 6.376 6.376 0 0 1 314.863 54.216 A 7.471 7.471 0 0 1 315.039 54.59 A 6.262 6.262 0 0 1 315.501 56.249 A 8.079 8.079 0 0 1 315.577 57.373 A 10.394 10.394 0 0 1 315.062 60.662 A 9.795 9.795 0 0 1 314.893 61.133 Q 314.209 62.891 313.013 64.404 A 15.64 15.64 0 0 1 310.763 66.703 A 17.839 17.839 0 0 1 310.157 67.188 A 20.971 20.971 0 0 1 306.592 69.385 Z M 168.75 52.588 Q 170.801 48.096 172.486 43.823 A 88.999 88.999 0 0 0 175.367 35.303 Q 176.563 31.055 177.246 26.685 A 58.113 58.113 0 0 0 177.919 18.757 A 64.694 64.694 0 0 0 177.93 17.578 Q 177.93 16.826 177.862 15.214 A 168.917 168.917 0 0 0 177.857 15.088 A 21.494 21.494 0 0 0 177.417 11.621 A 11.761 11.761 0 0 0 176.923 9.889 A 9.14 9.14 0 0 0 176.294 8.545 A 3.048 3.048 0 0 0 175.747 7.836 A 2.216 2.216 0 0 0 174.17 7.227 A 1.616 1.616 0 0 0 173.126 7.621 Q 172.872 7.829 172.641 8.146 A 4.614 4.614 0 0 0 172.315 8.667 A 10.549 10.549 0 0 0 171.779 9.835 Q 171.551 10.414 171.343 11.099 A 24.982 24.982 0 0 0 170.948 12.573 A 41.126 41.126 0 0 0 170.472 14.885 Q 170.191 16.47 169.971 18.311 Q 169.58 21.582 169.336 25.244 A 215.606 215.606 0 0 0 168.97 32.764 Q 168.848 36.621 168.799 40.259 A 563.626 563.626 0 0 0 168.763 43.781 A 459.374 459.374 0 0 0 168.75 47.07 L 168.75 52.588 Z M 350.928 21.192 A 45.77 45.77 0 0 0 350.91 19.922 A 57.289 57.289 0 0 0 350.855 18.555 A 17.583 17.583 0 0 0 350.662 16.689 A 14.989 14.989 0 0 0 350.513 15.894 Q 350.3 14.904 349.978 14.176 A 5.617 5.617 0 0 0 349.805 13.818 Q 349.517 13.273 349.102 13.086 A 1.126 1.126 0 0 0 348.633 12.988 A 1.565 1.565 0 0 0 347.697 13.323 Q 347.154 13.722 346.649 14.597 A 8.885 8.885 0 0 0 346.363 15.137 A 17.655 17.655 0 0 0 345.617 16.927 Q 345.282 17.861 344.98 18.962 A 39.785 39.785 0 0 0 344.532 20.776 A 59.313 59.313 0 0 0 343.83 24.5 Q 343.523 26.446 343.294 28.618 A 96.236 96.236 0 0 0 343.287 28.687 Q 342.823 33.106 342.823 37.598 A 108.335 108.335 0 0 0 343.164 46.192 A 186.394 186.394 0 0 0 343.506 50.016 Q 343.712 52.068 343.946 53.858 A 159.473 159.473 0 0 0 346.631 46.118 A 101.165 101.165 0 0 0 348.853 37.988 Q 349.805 33.838 350.367 29.614 Q 350.928 25.391 350.928 21.192 Z M 465.87 79.346 Q 461.182 81.494 457.544 84.473 A 42.258 42.258 0 0 0 453.62 88.104 A 34.519 34.519 0 0 0 451.392 90.698 A 30.484 30.484 0 0 0 448.956 94.334 A 24.25 24.25 0 0 0 447.559 97.217 Q 446.334 100.258 446.247 102.876 A 11.976 11.976 0 0 0 446.241 103.272 A 10.616 10.616 0 0 0 446.48 105.561 A 9.288 9.288 0 0 0 446.753 106.543 Q 447.266 108.057 448.243 109.204 Q 449.219 110.352 450.635 110.986 A 7.27 7.27 0 0 0 452.847 111.571 A 9 9 0 0 0 453.809 111.621 A 10.4 10.4 0 0 0 456.107 111.379 A 7.969 7.969 0 0 0 458.374 110.498 A 10.828 10.828 0 0 0 461.607 107.589 A 12.354 12.354 0 0 0 461.695 107.471 A 16.103 16.103 0 0 0 463.541 104.168 A 18.774 18.774 0 0 0 463.941 103.125 A 36.633 36.633 0 0 0 465.308 98.071 A 41.002 41.002 0 0 0 465.992 92.847 A 83.756 83.756 0 0 0 466.12 90.326 A 66.571 66.571 0 0 0 466.163 87.988 A 95.169 95.169 0 0 0 466.065 83.716 A 8777.482 8777.482 0 0 1 465.87 79.346 Z M 305.127 66.211 A 11.906 11.906 0 0 0 307.886 64.6 A 11.813 11.813 0 0 0 309.608 62.955 A 10.63 10.63 0 0 0 310.01 62.451 Q 310.889 61.279 311.377 59.985 A 7.349 7.349 0 0 0 311.866 57.373 A 4.683 4.683 0 0 0 311.794 56.527 Q 311.708 56.059 311.518 55.692 A 2.264 2.264 0 0 0 311.133 55.151 A 2.582 2.582 0 0 0 310.432 54.628 A 2.226 2.226 0 0 0 309.424 54.395 A 3.956 3.956 0 0 0 308.274 54.556 A 3.29 3.29 0 0 0 307.178 55.127 A 5.337 5.337 0 0 0 305.937 56.54 A 6.453 6.453 0 0 0 305.664 57.031 A 9.388 9.388 0 0 0 304.986 58.855 A 11.22 11.22 0 0 0 304.81 59.644 A 15.558 15.558 0 0 0 304.541 62.5 A 10.156 10.156 0 0 0 304.619 63.725 A 12.195 12.195 0 0 0 304.712 64.356 A 20.101 20.101 0 0 0 305.01 65.765 A 17.746 17.746 0 0 0 305.127 66.211 Z M 147.461 57.08 A 7.898 7.898 0 0 0 147.566 58.34 A 9.613 9.613 0 0 0 147.705 59.033 A 8.938 8.938 0 0 0 148.369 60.872 A 9.989 9.989 0 0 0 148.462 61.06 Q 148.975 62.061 149.732 62.964 A 7.363 7.363 0 0 0 151.514 64.502 A 14.227 14.227 0 0 0 151.66 62.622 A 13.078 13.078 0 0 0 151.661 62.5 A 18.976 18.976 0 0 0 151.465 59.815 Q 151.27 58.447 150.904 57.3 Q 150.538 56.152 150 55.444 A 2.141 2.141 0 0 0 149.627 55.057 A 1.41 1.41 0 0 0 148.731 54.736 A 0.551 0.551 0 0 0 148.541 54.775 Q 148.368 54.839 148.148 55.01 A 3.536 3.536 0 0 0 147.95 55.176 A 1.075 1.075 0 0 0 147.697 55.539 Q 147.532 55.905 147.483 56.513 A 7.007 7.007 0 0 0 147.461 57.08 Z M 237.144 59.107 A 1.967 1.967 0 0 0 236.768 59.668 A 2.484 2.484 0 0 0 236.665 60.012 A 1.828 1.828 0 0 0 236.621 60.4 A 1.914 1.914 0 0 0 237.11 61.694 A 1.563 1.563 0 0 0 237.832 62.17 A 1.977 1.977 0 0 0 238.428 62.256 A 1.914 1.914 0 0 0 238.735 62.231 A 2.016 2.016 0 0 0 239.454 61.963 A 1.821 1.821 0 0 0 240.186 61.133 A 1.983 1.983 0 0 0 240.228 61.026 A 1.686 1.686 0 0 0 240.332 60.449 Q 240.332 59.766 239.82 59.155 A 1.66 1.66 0 0 0 239.153 58.666 A 1.827 1.827 0 0 0 238.477 58.545 Q 237.94 58.545 237.476 58.838 A 1.794 1.794 0 0 0 237.144 59.107 Z M 579.981 51.074 L 582.129 51.074 A 12.051 12.051 0 0 0 582.128 50.89 Q 582.123 50.592 582.105 50.171 A 11.98 11.98 0 0 0 582.007 49.072 A 7.282 7.282 0 0 0 581.935 48.638 Q 581.895 48.435 581.846 48.259 A 3.959 3.959 0 0 0 581.812 48.145 A 1.843 1.843 0 0 0 581.765 48.012 Q 581.662 47.754 581.543 47.754 Q 581.397 47.754 581.177 48.12 A 7.997 7.997 0 0 0 581.009 48.415 Q 580.911 48.596 580.808 48.804 A 14.62 14.62 0 0 0 580.713 48.999 A 9.355 9.355 0 0 0 580.375 49.809 A 10.627 10.627 0 0 0 580.274 50.098 A 21.591 21.591 0 0 0 580.182 50.379 Q 580.063 50.755 579.991 51.035 A 7.114 7.114 0 0 0 579.981 51.074 Z" vector-effect="non-scaling-stroke"/></g></svg>