<svg width="1228.224" height="230.665" viewBox="0 0 1228.224 230.665" xmlns="http://www.w3.org/2000/svg"><g id="svgGroup" stroke-linecap="round" fill-rule="evenodd" font-size="9pt" stroke="#ff4817" stroke-width="0.25mm" fill="#ff5224" style="stroke:#ff4817;stroke-width:0.25mm;fill:#ff5224"><path d="M 223.453 33.344 A 420.264 420.264 0 0 0 220.313 38.477 A 496.603 496.603 0 0 0 214.967 47.583 A 661.635 661.635 0 0 0 209.278 57.715 A 338.699 338.699 0 0 0 201.89 71.677 A 385.826 385.826 0 0 0 199.464 76.612 Q 194.63 86.621 190.235 96.436 A 707.795 707.795 0 0 0 186.012 106.055 A 612.589 612.589 0 0 0 182.13 115.283 A 1863.396 1863.396 0 0 0 179.07 122.776 Q 177.684 126.191 176.473 129.223 A 1023.456 1023.456 0 0 0 175.684 131.201 A 1177.489 1177.489 0 0 0 174.39 134.473 Q 173.132 137.67 172.184 140.141 A 369.651 369.651 0 0 0 171.388 142.237 A 944.971 944.971 0 0 0 171.021 143.211 Q 169.956 146.051 169.839 146.429 A 0.316 0.316 0 0 0 169.825 146.485 A 4.48 4.48 0 0 1 169.085 147.746 Q 168.201 148.778 166.739 148.908 A 4.884 4.884 0 0 1 166.309 148.926 A 3.367 3.367 0 0 1 164.063 148.096 A 3.807 3.807 0 0 1 162.794 145.996 A 0.821 0.821 0 0 0 162.779 145.91 Q 162.678 145.392 161.866 141.846 Q 160.938 137.793 159.376 131.006 Q 158.033 125.173 156.366 117.826 A 6390.321 6390.321 0 0 1 155.811 115.381 Q 153.809 106.543 151.612 96.924 A 29881.889 29881.889 0 0 1 147.169 77.442 A 2754.594 2754.594 0 0 1 144.996 67.822 A 2350.04 2350.04 0 0 1 142.97 58.692 A 449.685 449.685 0 0 1 136.62 75.575 Q 133.234 84.031 129.835 91.358 A 225.113 225.113 0 0 1 123.369 104.252 Q 119.993 110.452 116.533 115.725 A 136.583 136.583 0 0 1 116.309 116.065 A 122.2 122.2 0 0 1 109.322 125.652 A 89.794 89.794 0 0 1 102.003 133.692 A 74.814 74.814 0 0 1 92.275 141.683 A 63.321 63.321 0 0 1 86.573 145.166 A 62.444 62.444 0 0 1 69.679 151.367 A 88.238 88.238 0 0 1 55.243 153.134 A 101.4 101.4 0 0 1 50.977 153.223 A 52.249 52.249 0 0 1 44.449 152.795 A 65.075 65.075 0 0 1 40.138 152.1 A 59.721 59.721 0 0 1 28.712 148.633 Q 23.048 146.289 17.872 142.774 Q 12.696 139.258 8.692 134.424 A 38.826 38.826 0 0 1 2.345 123.487 Q 0.001 117.383 0.001 109.863 A 32.748 32.748 0 0 1 1.714 99.181 A 30.313 30.313 0 0 1 3.321 95.362 Q 6.641 88.77 12.305 84.033 A 41.606 41.606 0 0 1 23.941 77.218 A 47.72 47.72 0 0 1 25.44 76.66 A 47.037 47.037 0 0 1 41.212 74.024 Q 47.266 74.024 52.1 75.049 A 55.358 55.358 0 0 1 56.645 76.206 A 40.675 40.675 0 0 1 60.645 77.637 Q 64.233 79.148 66.817 80.932 A 24.506 24.506 0 0 1 66.993 81.055 Q 69.012 82.475 70.515 83.724 A 34.341 34.341 0 0 1 71.388 84.473 A 27.966 27.966 0 0 1 72.389 85.405 Q 73.284 86.282 73.808 86.993 A 7.307 7.307 0 0 1 73.927 87.158 Q 74.708 88.281 74.805 88.281 Q 75.348 89.276 75.388 90.187 A 3.294 3.294 0 0 1 75.391 90.332 A 3.601 3.601 0 0 1 74.766 92.349 A 4.844 4.844 0 0 1 74.366 92.871 A 3.355 3.355 0 0 1 71.911 94.037 A 4.521 4.521 0 0 1 71.68 94.043 A 3.576 3.576 0 0 1 68.911 92.828 A 4.719 4.719 0 0 1 68.555 92.383 A 1.552 1.552 0 0 1 68.51 92.333 Q 68.275 92.072 66.993 90.576 A 11.507 11.507 0 0 0 65.896 89.475 Q 64.688 88.402 62.832 87.21 A 41.673 41.673 0 0 0 62.208 86.817 Q 59.627 85.222 55.895 83.864 A 57.036 57.036 0 0 0 53.663 83.106 A 32.202 32.202 0 0 0 48.846 82 Q 46.385 81.619 43.561 81.5 A 62.672 62.672 0 0 0 40.919 81.446 Q 34.083 81.446 27.979 83.545 Q 21.876 85.645 17.335 89.453 Q 12.794 93.262 10.108 98.487 Q 7.423 103.711 7.423 109.961 A 32.062 32.062 0 0 0 8.146 116.888 A 27.038 27.038 0 0 0 9.473 121.192 A 32.782 32.782 0 0 0 14.942 130.274 A 36.684 36.684 0 0 0 22.852 137.207 A 51.152 51.152 0 0 0 32.227 142.041 Q 37.11 143.946 42.042 144.873 A 54.57 54.57 0 0 0 47.925 145.665 A 44.737 44.737 0 0 0 51.368 145.801 A 92.437 92.437 0 0 0 65.87 144.678 A 54.217 54.217 0 0 0 79.727 140.479 A 59.882 59.882 0 0 0 79.835 140.43 A 57.127 57.127 0 0 0 88.766 135.319 A 69.808 69.808 0 0 0 93.36 131.836 Q 100.001 126.367 106.544 117.578 A 126.091 126.091 0 0 0 112.646 108.545 Q 116.085 102.976 119.483 96.387 A 232.183 232.183 0 0 0 125.089 84.675 Q 127.797 78.614 130.513 71.753 A 400.044 400.044 0 0 0 132.325 67.09 A 179.211 179.211 0 0 0 134.728 60.437 A 214.973 214.973 0 0 0 136.134 56.153 A 1223.462 1223.462 0 0 1 139.942 44.336 Q 138.801 38.428 138.098 33.72 A 146.765 146.765 0 0 1 137.55 29.688 A 128.479 128.479 0 0 1 137.133 25.767 Q 136.817 22.257 136.817 19.629 A 44.313 44.313 0 0 1 136.884 17.115 Q 137.025 14.646 137.462 12.94 A 12.691 12.691 0 0 1 137.501 12.793 Q 138.184 10.254 139.259 8.936 A 6.154 6.154 0 0 1 140.083 8.092 Q 140.804 7.491 141.602 7.276 A 10.026 10.026 0 0 1 143.151 6.982 A 8.46 8.46 0 0 1 144.044 6.934 A 5.847 5.847 0 0 1 144.996 7.017 Q 145.583 7.114 146.241 7.324 Q 147.354 7.681 148.305 8.808 A 7.344 7.344 0 0 1 148.487 9.033 Q 149.184 9.929 149.723 11.39 A 17.417 17.417 0 0 1 150.196 12.891 A 16.481 16.481 0 0 1 150.582 14.82 Q 150.88 16.89 150.88 19.727 Q 150.88 23.755 150.231 28.865 A 110.413 110.413 0 0 1 150.001 30.567 A 131.63 131.63 0 0 1 148.902 37.036 A 178.912 178.912 0 0 1 147.364 44.141 A 905.059 905.059 0 0 0 148.731 50.44 A 1238.3 1238.3 0 0 0 150.294 57.422 A 5203.855 5203.855 0 0 1 152.839 68.711 A 5776.72 5776.72 0 0 1 153.712 72.608 A 6686.59 6686.59 0 0 0 157.325 88.672 A 14500.124 14500.124 0 0 1 160.938 104.688 A 16238.325 16238.325 0 0 0 163.493 116.022 A 14140.172 14140.172 0 0 0 164.307 119.629 A 1458.159 1458.159 0 0 0 165.858 126.416 A 1064.207 1064.207 0 0 0 167.286 132.52 Q 169.923 125.879 173.731 116.455 A 609.259 609.259 0 0 1 177.76 106.738 A 741.368 741.368 0 0 1 182.227 96.436 A 867.495 867.495 0 0 1 192.139 74.854 A 362.171 362.171 0 0 1 200.114 59.061 A 319.477 319.477 0 0 1 202.833 54.102 Q 208.74 43.485 213.902 35.186 A 287.788 287.788 0 0 1 216.993 30.322 A 592.483 592.483 0 0 1 220.106 25.583 Q 224.61 18.799 228.126 13.965 A 289.584 289.584 0 0 1 230.344 10.953 Q 232.503 8.064 234.13 6.071 A 64.439 64.439 0 0 1 235.499 4.444 A 613.436 613.436 0 0 0 236.131 3.718 Q 238.075 1.484 238.35 1.116 A 1.008 1.008 0 0 0 238.38 1.074 A 3.578 3.578 0 0 1 240.968 0 A 4.517 4.517 0 0 1 241.016 0 A 3.982 3.982 0 0 1 242.293 0.196 A 3.315 3.315 0 0 1 243.702 1.123 Q 244.727 2.246 244.727 3.711 A 3.373 3.373 0 0 1 244.519 4.865 A 3.966 3.966 0 0 1 244.434 5.078 A 0.338 0.338 0 0 1 244.417 5.145 Q 244.312 5.469 243.58 7.293 A 406.478 406.478 0 0 1 243.311 7.959 A 103.509 103.509 0 0 0 242.713 9.479 Q 242.059 11.178 241.248 13.423 A 344.997 344.997 0 0 0 240.479 15.576 A 271.83 271.83 0 0 0 239.15 19.435 Q 238.575 21.141 237.968 23.008 A 473.429 473.429 0 0 0 236.72 26.905 A 270.582 270.582 0 0 0 234.194 35.404 A 326.325 326.325 0 0 0 232.716 40.869 A 216.071 216.071 0 0 0 230.033 52.46 A 240.524 240.524 0 0 0 229.249 56.494 Q 227.735 64.649 227.052 72.754 A 246.251 246.251 0 0 0 226.667 78.513 A 279.931 279.931 0 0 0 226.563 80.518 A 169.377 169.377 0 0 0 226.368 88.672 A 145.556 145.556 0 0 0 226.954 101.66 Q 227.54 108.203 228.907 114.258 A 62.842 62.842 0 0 0 232.047 124.293 A 57.417 57.417 0 0 0 232.618 125.635 A 39.454 39.454 0 0 0 236.3 132.261 A 34.213 34.213 0 0 0 238.38 134.961 A 26.691 26.691 0 0 0 246.534 141.406 A 23.31 23.31 0 0 0 253.224 143.613 A 30.286 30.286 0 0 0 257.52 144.043 A 3.435 3.435 0 0 1 258.885 144.401 A 3.291 3.291 0 0 1 260.011 145.362 A 4.738 4.738 0 0 1 260.684 146.558 A 3.919 3.919 0 0 1 260.938 147.949 A 3.264 3.264 0 0 1 260.149 150.079 A 4.429 4.429 0 0 1 259.864 150.391 A 3.673 3.673 0 0 1 258.652 151.213 A 3.481 3.481 0 0 1 257.325 151.465 Q 255.763 151.465 254.2 151.172 A 37.669 37.669 0 0 1 246.911 149.443 A 30.666 30.666 0 0 1 241.798 147.119 A 35.2 35.2 0 0 1 232.52 139.502 Q 228.614 134.961 226.026 129.151 A 68.924 68.924 0 0 1 222.282 118.347 A 77.121 77.121 0 0 1 221.876 116.699 A 97.809 97.809 0 0 1 219.699 103.105 A 106.782 106.782 0 0 1 219.679 102.881 A 164.549 164.549 0 0 1 219.044 88.379 A 172.666 172.666 0 0 1 219.923 70.996 Q 220.802 62.305 222.266 54.053 A 226.026 226.026 0 0 1 225.684 38.086 Q 227.638 30.371 229.688 23.731 Q 226.801 27.96 223.453 33.344 Z M 968.202 145.907 A 3.727 3.727 0 0 0 968.555 144.238 A 5.009 5.009 0 0 0 968.553 144.071 A 3.837 3.837 0 0 0 967.481 141.455 A 2.973 2.973 0 0 0 966.088 140.633 Q 965.539 140.483 964.877 140.5 A 5.783 5.783 0 0 0 964.454 140.528 Q 963.38 140.625 960.645 141.113 A 62.36 62.36 0 0 0 959.315 141.367 Q 958.167 141.597 956.884 141.896 A 115.819 115.819 0 0 0 954.298 142.53 A 158.774 158.774 0 0 0 950.55 143.543 A 199.212 199.212 0 0 0 946.534 144.727 A 90.039 90.039 0 0 0 938.38 147.656 Q 937.891 141.992 937.598 136.28 Q 937.305 130.567 937.305 125.293 A 206.238 206.238 0 0 1 937.415 118.726 A 272.765 272.765 0 0 1 937.745 111.524 Q 938.184 104.004 938.868 96.387 A 629.531 629.531 0 0 1 938.911 95.911 A 579.045 579.045 0 0 1 940.382 81.592 A 729.041 729.041 0 0 1 940.614 79.605 Q 941.322 73.632 941.993 68.848 A 2115.998 2115.998 0 0 1 943.055 61.597 A 1833.643 1833.643 0 0 1 944.093 54.688 A 84377.225 84377.225 0 0 1 944.376 52.824 Q 945.228 47.228 945.899 42.822 A 11084.842 11084.842 0 0 1 946.061 41.763 Q 946.732 37.361 947.169 34.522 A 282.765 282.765 0 0 0 947.304 33.635 Q 947.581 31.796 947.641 31.194 A 2.737 2.737 0 0 0 947.657 30.957 A 3.399 3.399 0 0 0 947.333 29.496 A 4.134 4.134 0 0 0 946.632 28.467 A 3.315 3.315 0 0 0 945.223 27.54 A 3.982 3.982 0 0 0 943.946 27.344 A 3.556 3.556 0 0 0 941.651 28.174 Q 940.626 29.004 940.43 30.371 Q 940.43 30.469 939.649 34.278 Q 939.063 37.134 938.12 41.336 A 807.775 807.775 0 0 1 937.452 44.287 A 326.028 326.028 0 0 1 937.04 46.067 Q 936.402 48.79 935.643 51.835 A 577.032 577.032 0 0 1 933.936 58.496 A 410.425 410.425 0 0 1 932.853 62.543 A 472.17 472.17 0 0 1 929.2 75.196 A 303.078 303.078 0 0 1 923.341 92.578 A 181.488 181.488 0 0 1 921.279 97.886 A 153.694 153.694 0 0 1 916.407 108.692 A 163.555 163.555 0 0 1 911.011 118.698 Q 903.77 131.018 896.143 138.184 A 52.079 52.079 0 0 1 894.448 139.709 Q 890.768 142.875 887.022 144.839 A 26.469 26.469 0 0 1 874.61 148.047 Q 868.555 148.047 864.454 146.045 A 17.328 17.328 0 0 1 857.813 140.479 A 21.238 21.238 0 0 1 855.863 137.117 A 25.62 25.62 0 0 1 854.151 132.08 A 41.168 41.168 0 0 1 853.445 128.177 A 50.147 50.147 0 0 1 853.028 121.582 A 85.543 85.543 0 0 1 853.197 116.28 A 105.52 105.52 0 0 1 854.054 108.008 A 226.097 226.097 0 0 1 854.318 106.195 A 248.618 248.618 0 0 1 856.641 93.164 Q 858.204 85.547 860.011 77.735 A 449.887 449.887 0 0 0 863.282 62.403 A 57.56 57.56 0 0 0 863.47 61.526 A 52.209 52.209 0 0 0 864.356 55.518 A 76.093 76.093 0 0 0 864.649 48.926 A 56.271 56.271 0 0 0 864.558 45.708 A 48.207 48.207 0 0 0 862.061 32.715 A 43.665 43.665 0 0 0 861.379 30.866 A 37.553 37.553 0 0 0 854.591 19.678 A 32.975 32.975 0 0 0 852.345 17.376 A 35.169 35.169 0 0 0 842.53 10.987 A 35.656 35.656 0 0 0 835.351 8.702 A 44.518 44.518 0 0 0 826.27 7.813 Q 815.43 7.813 805.811 11.865 A 50.437 50.437 0 0 0 789.063 23.242 A 50.637 50.637 0 0 0 785.585 27.21 A 55.551 55.551 0 0 0 777.784 40.772 A 54.053 54.053 0 0 0 775.175 49.065 A 63.434 63.434 0 0 0 773.634 63.281 Q 773.634 72.266 775.733 78.955 Q 777.833 85.645 781.007 90.528 A 39.827 39.827 0 0 0 783.49 93.949 A 31.718 31.718 0 0 0 788.087 98.584 A 62.079 62.079 0 0 0 788.332 98.783 Q 790.173 100.263 791.937 101.448 A 37.823 37.823 0 0 0 795.557 103.613 A 48.596 48.596 0 0 0 796.821 104.249 Q 799.634 105.61 801.954 106.25 A 56.216 56.216 0 0 0 802.359 106.361 Q 804.865 107.031 805.86 107.031 A 3.327 3.327 0 0 0 807.326 106.705 A 3.733 3.733 0 0 0 808.399 105.908 A 4.696 4.696 0 0 0 808.469 105.833 A 3.615 3.615 0 0 0 809.473 103.321 Q 809.473 101.953 808.546 100.879 Q 807.618 99.805 806.251 99.61 Q 799.61 98.438 794.825 94.824 Q 790.04 91.211 786.964 86.084 Q 783.888 80.957 782.423 74.854 Q 780.958 68.75 780.958 62.598 A 56.125 56.125 0 0 1 781.055 59.275 A 47.76 47.76 0 0 1 784.571 43.653 A 53.983 53.983 0 0 1 785.033 42.575 A 47.292 47.292 0 0 1 794.337 28.613 Q 800.489 22.266 808.741 18.701 A 43.972 43.972 0 0 1 826.368 15.137 A 37.731 37.731 0 0 1 831.701 15.501 A 29.094 29.094 0 0 1 839.552 17.725 A 32.107 32.107 0 0 1 839.731 17.806 A 28.039 28.039 0 0 1 849.268 24.805 A 28.528 28.528 0 0 1 851.449 27.618 A 31.627 31.627 0 0 1 855.274 35.449 Q 857.325 41.602 857.325 48.731 A 57.419 57.419 0 0 1 857.067 54.096 A 70.522 70.522 0 0 1 855.763 62.403 Q 854.2 69.629 852.638 76.758 A 700.243 700.243 0 0 0 847.852 100.244 Q 845.704 111.817 845.704 121.973 A 58.291 58.291 0 0 0 846.04 128.358 A 44.675 44.675 0 0 0 847.462 135.742 A 33.228 33.228 0 0 0 848.598 139.062 A 26.886 26.886 0 0 0 852.833 146.24 Q 856.446 150.586 861.817 152.979 Q 867.188 155.371 874.513 155.371 A 31.323 31.323 0 0 0 881.225 154.643 A 35.839 35.839 0 0 0 890.821 150.977 Q 895.138 148.608 899.27 145.033 A 67.725 67.725 0 0 0 906.202 138.037 A 82.401 82.401 0 0 0 907.493 136.503 Q 914.167 128.377 920.313 116.797 A 179.074 179.074 0 0 0 926.807 103.125 A 242.214 242.214 0 0 0 932.813 87.5 Q 932.227 92.969 931.69 98.242 A 543.377 543.377 0 0 0 931.19 103.394 A 468.42 468.42 0 0 0 930.763 108.301 Q 930.372 113.086 930.177 117.237 A 217.255 217.255 0 0 0 930.126 118.385 Q 929.981 121.84 929.981 124.61 A 238.855 238.855 0 0 0 929.987 126.203 A 264.711 264.711 0 0 0 930.323 137.744 A 483.196 483.196 0 0 0 930.701 144.373 A 418.211 418.211 0 0 0 931.153 150.684 A 116.496 116.496 0 0 0 921.345 155.825 A 90.666 90.666 0 0 0 910.548 163.233 A 96.844 96.844 0 0 0 903.522 169.436 A 74.443 74.443 0 0 0 896.192 177.686 A 67.793 67.793 0 0 0 892.004 183.864 A 52.214 52.214 0 0 0 887.794 192.578 A 47.924 47.924 0 0 0 885.925 198.904 A 35.756 35.756 0 0 0 885.059 206.543 A 31.323 31.323 0 0 0 885.069 207.318 A 27.54 27.54 0 0 0 886.622 215.918 A 25.907 25.907 0 0 0 886.771 216.328 A 22.688 22.688 0 0 0 891.114 223.584 A 21.179 21.179 0 0 0 898.243 228.76 Q 902.442 230.664 907.716 230.664 A 30.711 30.711 0 0 0 912.85 230.251 A 22.615 22.615 0 0 0 922.95 225.977 A 31.279 31.279 0 0 0 927.384 221.86 A 35.787 35.787 0 0 0 932.813 213.623 A 55.261 55.261 0 0 0 935.66 206.48 A 69.169 69.169 0 0 0 938.087 196.192 Q 939.649 186.426 939.649 176.172 A 275.812 275.812 0 0 0 939.454 165.869 A 287.487 287.487 0 0 0 938.868 155.371 A 104.573 104.573 0 0 1 940.656 154.625 A 92.579 92.579 0 0 1 948.243 151.905 A 207.973 207.973 0 0 1 949.514 151.517 Q 951.389 150.951 953.082 150.481 A 118.563 118.563 0 0 1 956.397 149.61 A 131.335 131.335 0 0 1 958.6 149.085 Q 960.715 148.603 962.257 148.34 Q 964.265 147.998 964.665 147.956 A 0.883 0.883 0 0 1 964.747 147.949 A 8.822 8.822 0 0 0 965.228 147.862 Q 967.471 147.388 968.202 145.907 Z M 480.372 122.266 A 131.306 131.306 0 0 0 480.161 122.689 Q 479.819 123.38 479.18 124.683 A 1839.225 1839.225 0 0 0 478.761 125.537 A 63.703 63.703 0 0 1 477.749 127.508 Q 477.172 128.588 476.491 129.78 A 118.206 118.206 0 0 1 475.636 131.25 A 80.692 80.692 0 0 1 473.15 135.18 A 100.547 100.547 0 0 1 471.192 137.988 A 44.62 44.62 0 0 1 465.528 144.434 A 30.898 30.898 0 0 1 458.79 149.268 Q 455.177 151.172 451.173 151.172 A 14.646 14.646 0 0 1 446.109 150.324 A 13 13 0 0 1 441.651 147.559 A 20.572 20.572 0 0 1 436.54 139.897 A 24.761 24.761 0 0 1 436.036 138.477 A 31.9 31.9 0 0 1 432.15 143.743 A 25.806 25.806 0 0 1 428.126 147.315 A 19.664 19.664 0 0 1 424.432 149.418 A 13.902 13.902 0 0 1 418.946 150.586 A 17.094 17.094 0 0 1 414.997 150.146 A 14.38 14.38 0 0 1 412.403 149.268 A 14.084 14.084 0 0 1 407.423 145.557 A 16.936 16.936 0 0 1 404.583 140.832 A 19.695 19.695 0 0 1 404.249 139.942 A 20.304 20.304 0 0 1 403.205 134.892 A 24.347 24.347 0 0 1 403.126 132.91 A 38.224 38.224 0 0 1 403.694 126.166 A 28.884 28.884 0 0 1 405.714 119.483 A 33.927 33.927 0 0 1 409.073 113.548 A 28.003 28.003 0 0 1 412.305 109.766 A 27.872 27.872 0 0 1 418.923 104.929 A 25.657 25.657 0 0 1 421.143 103.906 A 27.783 27.783 0 0 1 426.183 102.382 A 22.166 22.166 0 0 1 430.47 101.953 A 19.298 19.298 0 0 1 433.892 102.246 A 16.032 16.032 0 0 1 436.036 102.783 A 33.047 33.047 0 0 1 438.117 103.538 Q 439.053 103.915 439.859 104.318 A 18.749 18.749 0 0 1 440.382 104.59 A 26.276 26.276 0 0 1 441.43 105.186 Q 442.493 105.826 443.165 106.397 Q 444.087 107.18 444.225 107.311 A 0.684 0.684 0 0 1 444.239 107.324 A 5.11 5.11 0 0 1 444.909 108.321 A 3.606 3.606 0 0 1 445.313 109.961 A 3.615 3.615 0 0 1 444.309 112.474 A 4.696 4.696 0 0 1 444.239 112.549 A 3.733 3.733 0 0 1 443.166 113.346 A 3.327 3.327 0 0 1 441.7 113.672 A 3.744 3.744 0 0 1 440.147 113.355 A 3.637 3.637 0 0 1 439.063 112.598 A 2.738 2.738 0 0 0 438.954 112.496 Q 438.718 112.285 438.184 111.865 A 7.404 7.404 0 0 0 437.617 111.464 Q 437.07 111.113 436.329 110.742 A 12.489 12.489 0 0 0 435.134 110.225 Q 434.499 109.987 433.771 109.78 A 21.188 21.188 0 0 0 433.546 109.717 A 11.953 11.953 0 0 0 431.825 109.387 Q 430.909 109.278 429.884 109.278 A 15.3 15.3 0 0 0 426.354 109.71 A 20.725 20.725 0 0 0 423.438 110.645 A 17.738 17.738 0 0 0 418.271 113.866 A 21.101 21.101 0 0 0 417.188 114.893 A 21.696 21.696 0 0 0 414.046 119.007 A 27.955 27.955 0 0 0 412.452 122.119 A 21.739 21.739 0 0 0 410.973 127.151 Q 410.548 129.606 410.548 132.422 Q 410.548 134.278 410.938 136.182 A 10.464 10.464 0 0 0 412.238 139.538 A 10.012 10.012 0 0 0 412.305 139.649 A 7.586 7.586 0 0 0 414.942 142.188 Q 416.602 143.164 419.044 143.164 A 6.486 6.486 0 0 0 420.561 142.971 Q 421.257 142.803 422.021 142.49 A 14.394 14.394 0 0 0 423.096 141.992 Q 425.324 140.855 427.367 138.522 A 21.013 21.013 0 0 0 427.491 138.379 A 21.84 21.84 0 0 0 429.463 135.668 Q 430.311 134.306 431.081 132.693 A 36.823 36.823 0 0 0 431.3 132.227 A 26.01 26.01 0 0 0 432.752 128.174 Q 433.35 125.977 433.692 123.438 Q 433.888 122.071 434.962 121.143 Q 436.036 120.215 437.501 120.215 A 3.151 3.151 0 0 1 439.698 121.097 A 4.243 4.243 0 0 1 439.893 121.289 A 4.213 4.213 0 0 1 440.687 122.437 A 3.701 3.701 0 0 1 441.016 123.731 Q 441.091 125.151 441.28 127.459 A 306.092 306.092 0 0 0 441.407 128.955 Q 441.7 132.324 442.725 135.645 A 17.045 17.045 0 0 0 444.606 139.774 A 15.204 15.204 0 0 0 445.802 141.406 A 6.701 6.701 0 0 0 450.27 143.776 A 9.605 9.605 0 0 0 451.466 143.848 A 9.109 9.109 0 0 0 455.062 143.088 A 11.298 11.298 0 0 0 456.104 142.578 A 20.132 20.132 0 0 0 458.935 140.667 A 25.248 25.248 0 0 0 460.596 139.209 A 36.675 36.675 0 0 0 463.783 135.73 A 42.577 42.577 0 0 0 464.796 134.424 Q 466.798 131.738 468.458 129.004 A 78.866 78.866 0 0 0 470.38 125.662 A 65.888 65.888 0 0 0 471.388 123.731 A 314.241 314.241 0 0 0 472.285 121.923 Q 472.636 121.209 472.948 120.563 A 166.036 166.036 0 0 0 473.536 119.336 A 3.934 3.934 0 0 1 474.288 118.214 A 3.588 3.588 0 0 1 474.952 117.676 A 3.68 3.68 0 0 1 476.954 117.09 A 3.655 3.655 0 0 1 478.307 117.332 A 3.319 3.319 0 0 1 479.639 118.311 A 4.755 4.755 0 0 1 480.313 119.347 A 3.616 3.616 0 0 1 480.665 120.899 A 3.373 3.373 0 0 1 480.456 122.052 A 3.966 3.966 0 0 1 480.372 122.266 A 3.642 3.642 0 0 1 478.907 123.926 A 4.033 4.033 0 0 1 477.469 124.463 A 3.828 3.828 0 0 1 476.856 124.512 A 3.954 3.954 0 0 1 475.664 124.341 A 3.126 3.126 0 0 1 474.22 123.389 A 3.828 3.828 0 0 1 473.243 120.801 A 3.655 3.655 0 0 1 473.331 120.024 A 4.969 4.969 0 0 1 473.536 119.336 A 116.709 116.709 0 0 1 476.111 113.618 Q 479.119 107.423 481.934 103.955 Q 485.609 99.43 489.119 99.057 A 5.949 5.949 0 0 1 489.747 99.024 A 8.145 8.145 0 0 1 491.451 99.193 A 5.778 5.778 0 0 1 493.507 100.049 A 7.446 7.446 0 0 1 495.899 102.686 A 11.717 11.717 0 0 1 496.868 105.079 A 14.377 14.377 0 0 1 497.169 106.348 A 21.64 21.64 0 0 1 497.553 109.862 A 19.72 19.72 0 0 1 497.559 110.352 A 302.09 302.09 0 0 1 497.45 118.677 A 229.742 229.742 0 0 1 497.12 126.27 A 2500.087 2500.087 0 0 1 496.192 140.821 Q 497.657 137.891 499.952 133.545 A 335.737 335.737 0 0 1 504.737 124.805 A 305.102 305.102 0 0 1 507.203 120.532 A 263.51 263.51 0 0 1 509.62 116.504 A 98.815 98.815 0 0 1 511.044 114.244 Q 512.374 112.198 513.428 110.854 A 25.15 25.15 0 0 1 513.673 110.547 Q 516.505 107.129 519.532 105.664 Q 522.559 104.199 525.098 104.199 A 10.035 10.035 0 0 1 527.18 104.405 A 7.392 7.392 0 0 1 529.444 105.274 Q 531.251 106.348 532.423 108.155 A 12.678 12.678 0 0 1 533.708 110.778 A 15.702 15.702 0 0 1 534.18 112.354 A 20.618 20.618 0 0 1 534.725 116.052 A 24.305 24.305 0 0 1 534.766 117.481 A 41.726 41.726 0 0 1 534.757 118.323 Q 534.73 119.678 534.62 121.582 A 643.474 643.474 0 0 0 534.473 124.219 A 796.868 796.868 0 0 0 534.327 127.051 A 1922.558 1922.558 0 0 0 534.071 132.327 A 2115.534 2115.534 0 0 0 534.034 133.106 A 583.439 583.439 0 0 0 533.9 136.133 A 477.271 477.271 0 0 0 533.79 138.965 A 386.192 386.192 0 0 1 535.352 135.877 A 524.428 524.428 0 0 1 537.11 132.471 Q 538.966 128.906 540.87 125.391 A 364.075 364.075 0 0 1 542.738 121.985 A 303.73 303.73 0 0 1 544.532 118.799 A 68.983 68.983 0 0 1 545.809 116.65 Q 546.421 115.665 546.992 114.834 A 31.934 31.934 0 0 1 547.755 113.77 A 45.172 45.172 0 0 1 550.201 110.684 Q 552.742 107.772 555.07 106.366 A 11.787 11.787 0 0 1 555.616 106.055 A 21.057 21.057 0 0 1 558.009 104.953 Q 560.241 104.102 562.11 104.102 A 14.844 14.844 0 0 1 564.43 104.273 Q 566.234 104.558 567.579 105.322 A 9.998 9.998 0 0 1 569.902 107.115 A 8.875 8.875 0 0 1 570.948 108.447 A 12.491 12.491 0 0 1 572.626 112.549 A 14.136 14.136 0 0 1 572.657 112.696 A 23.247 23.247 0 0 1 573.093 115.757 A 19.81 19.81 0 0 1 573.145 117.188 A 50.02 50.02 0 0 1 572.871 122.333 A 57.657 57.657 0 0 1 572.657 124.121 Q 572.283 126.888 572.196 130.456 A 92.106 92.106 0 0 0 572.169 132.715 A 43.237 43.237 0 0 0 572.364 136.817 A 15.022 15.022 0 0 0 572.656 138.689 A 11.086 11.086 0 0 0 573.194 140.43 Q 573.829 141.992 575.196 142.969 A 4.815 4.815 0 0 0 576.692 143.67 Q 577.344 143.855 578.12 143.916 A 10.09 10.09 0 0 0 578.907 143.946 A 10.127 10.127 0 0 0 583.122 143.007 A 12.214 12.214 0 0 0 583.888 142.627 A 20.635 20.635 0 0 0 587.152 140.422 A 24.674 24.674 0 0 0 588.575 139.16 A 35.907 35.907 0 0 0 592 135.364 A 41.073 41.073 0 0 0 592.823 134.278 A 76.696 76.696 0 0 0 596.276 129.151 A 70.412 70.412 0 0 0 596.485 128.809 A 87.369 87.369 0 0 0 598.408 125.486 A 71.292 71.292 0 0 0 599.415 123.584 Q 600.684 121.094 601.466 119.336 A 4.229 4.229 0 0 1 602.093 118.334 A 3.574 3.574 0 0 1 602.833 117.676 A 3.445 3.445 0 0 1 604.786 117.09 A 3.655 3.655 0 0 1 606.139 117.332 A 3.319 3.319 0 0 1 607.471 118.311 A 4.755 4.755 0 0 1 608.145 119.347 A 3.616 3.616 0 0 1 608.497 120.899 A 3.373 3.373 0 0 1 608.288 122.052 A 3.966 3.966 0 0 1 608.204 122.266 Q 607.885 122.904 607.044 124.683 A 599.878 599.878 0 0 0 606.641 125.537 A 43.996 43.996 0 0 1 605.653 127.501 Q 604.737 129.218 603.516 131.201 Q 601.563 134.375 598.975 137.891 Q 596.388 141.406 593.263 144.385 A 30.188 30.188 0 0 1 586.862 149.087 A 28.357 28.357 0 0 1 586.524 149.268 Q 582.911 151.172 578.907 151.172 A 20.104 20.104 0 0 1 576.143 150.993 Q 574.685 150.79 573.471 150.358 A 9.934 9.934 0 0 1 571.925 149.658 Q 569.239 148.145 567.628 145.606 Q 566.016 143.067 565.43 139.746 Q 564.845 136.426 564.845 132.813 Q 564.845 128.028 565.333 123.975 A 104.031 104.031 0 0 0 565.546 122.061 Q 565.821 119.361 565.821 117.676 A 21.997 21.997 0 0 0 565.786 116.395 Q 565.712 115.131 565.481 114.287 A 5.137 5.137 0 0 0 565.382 113.965 A 6.841 6.841 0 0 0 565.096 113.259 Q 564.749 112.532 564.307 112.158 Q 563.673 111.621 563.087 111.572 A 23.361 23.361 0 0 0 562.812 111.551 Q 562.428 111.524 562.208 111.524 A 4.959 4.959 0 0 0 560.149 112.001 Q 559.385 112.348 558.597 112.947 A 13.048 13.048 0 0 0 557.276 114.112 A 30.068 30.068 0 0 0 555.149 116.496 Q 554.167 117.714 553.164 119.168 A 59.061 59.061 0 0 0 551.954 120.996 A 119.644 119.644 0 0 0 549.183 125.586 A 159.92 159.92 0 0 0 546.339 130.762 A 1674.59 1674.59 0 0 0 540.528 141.895 Q 538.951 144.864 537.858 146.864 A 253.137 253.137 0 0 1 537.745 147.071 A 26.985 26.985 0 0 1 536.984 148.377 Q 536.593 149.004 536.215 149.519 A 11.762 11.762 0 0 1 535.596 150.293 A 9.682 9.682 0 0 1 534.866 151.047 Q 534.22 151.641 533.595 151.953 A 4.68 4.68 0 0 1 531.664 152.437 A 5.498 5.498 0 0 1 531.446 152.442 A 5.827 5.827 0 0 1 529.845 152.234 A 4.18 4.18 0 0 1 527.589 150.684 Q 526.362 149.048 526.277 146.483 A 11.697 11.697 0 0 1 526.27 146.094 A 55.795 55.795 0 0 1 526.276 145.301 Q 526.289 144.419 526.328 143.278 A 176.417 176.417 0 0 1 526.368 142.188 A 707.698 707.698 0 0 0 526.466 139.624 A 929.514 929.514 0 0 0 526.563 136.817 A 205.935 205.935 0 0 1 526.809 131.54 A 227.133 227.133 0 0 1 526.856 130.762 A 217.653 217.653 0 0 0 527.094 126.212 A 192.089 192.089 0 0 0 527.149 124.756 Q 527.233 122.28 527.317 120.273 A 388.854 388.854 0 0 1 527.345 119.629 Q 527.419 117.909 527.437 116.819 A 38.113 38.113 0 0 0 527.442 116.211 A 11.68 11.68 0 0 0 527.38 114.962 Q 527.209 113.374 526.563 112.549 A 3.499 3.499 0 0 0 525.955 111.933 A 2.303 2.303 0 0 0 524.513 111.426 Q 523.666 111.426 522.667 111.912 A 7.558 7.558 0 0 0 522.12 112.207 Q 520.802 112.988 519.044 115.235 A 31.778 31.778 0 0 0 518.314 116.214 Q 517.515 117.328 516.521 118.871 A 116.434 116.434 0 0 0 515.577 120.362 A 200.877 200.877 0 0 0 513.416 123.914 A 260.667 260.667 0 0 0 511.134 127.832 A 335.53 335.53 0 0 0 506.495 136.231 Q 504.2 140.528 502.54 143.946 A 29.173 29.173 0 0 1 501.386 146.048 Q 500.145 148.09 498.903 149.184 A 6.924 6.924 0 0 1 498.438 149.561 A 9.158 9.158 0 0 1 496.977 150.453 Q 496.049 150.9 495.141 151.025 A 5.152 5.152 0 0 1 494.434 151.074 Q 491.602 151.074 490.235 149.365 A 5.946 5.946 0 0 1 489.134 147.106 Q 488.868 146.075 488.868 144.824 Q 488.868 144.531 489.014 141.309 A 1697.917 1697.917 0 0 0 489.131 138.693 Q 489.183 137.52 489.239 136.208 A 3450.583 3450.583 0 0 0 489.356 133.447 A 2159.304 2159.304 0 0 1 489.564 128.65 A 2617.651 2617.651 0 0 1 489.796 123.535 A 2940.839 2940.839 0 0 0 490.028 118.433 A 2387.883 2387.883 0 0 0 490.235 113.672 A 29.938 29.938 0 0 0 490.26 112.476 Q 490.26 110.718 490.04 109.18 A 15.637 15.637 0 0 0 489.913 108.415 Q 489.648 107.05 489.259 106.738 Q 488.477 106.934 486.182 110.352 A 28.259 28.259 0 0 0 484.959 112.378 Q 483.648 114.74 482.028 118.392 A 167.479 167.479 0 0 0 480.372 122.266 Z M 1167.286 122.266 A 131.306 131.306 0 0 0 1167.075 122.689 Q 1166.733 123.38 1166.094 124.683 A 1839.225 1839.225 0 0 0 1165.675 125.537 A 63.703 63.703 0 0 1 1164.663 127.508 Q 1164.086 128.588 1163.405 129.78 A 118.206 118.206 0 0 1 1162.55 131.25 A 80.692 80.692 0 0 1 1160.064 135.18 A 100.547 100.547 0 0 1 1158.106 137.988 A 44.62 44.62 0 0 1 1152.442 144.434 A 30.898 30.898 0 0 1 1145.704 149.268 Q 1142.091 151.172 1138.087 151.172 A 14.646 14.646 0 0 1 1133.024 150.324 A 13 13 0 0 1 1128.565 147.559 A 20.572 20.572 0 0 1 1123.454 139.897 A 24.761 24.761 0 0 1 1122.95 138.477 A 31.9 31.9 0 0 1 1119.064 143.743 A 25.806 25.806 0 0 1 1115.04 147.315 A 19.664 19.664 0 0 1 1111.346 149.418 A 13.902 13.902 0 0 1 1105.86 150.586 A 17.094 17.094 0 0 1 1101.911 150.146 A 14.38 14.38 0 0 1 1099.317 149.268 A 14.084 14.084 0 0 1 1094.337 145.557 A 16.936 16.936 0 0 1 1091.497 140.832 A 19.695 19.695 0 0 1 1091.163 139.942 A 20.304 20.304 0 0 1 1090.119 134.892 A 24.347 24.347 0 0 1 1090.04 132.91 A 38.224 38.224 0 0 1 1090.608 126.166 A 28.884 28.884 0 0 1 1092.628 119.483 A 33.927 33.927 0 0 1 1095.987 113.548 A 28.003 28.003 0 0 1 1099.22 109.766 A 27.872 27.872 0 0 1 1105.837 104.929 A 25.657 25.657 0 0 1 1108.057 103.906 A 27.783 27.783 0 0 1 1113.097 102.382 A 22.166 22.166 0 0 1 1117.384 101.953 A 19.298 19.298 0 0 1 1120.806 102.246 A 16.032 16.032 0 0 1 1122.95 102.783 A 33.047 33.047 0 0 1 1125.032 103.538 Q 1125.967 103.915 1126.773 104.318 A 18.749 18.749 0 0 1 1127.296 104.59 A 26.276 26.276 0 0 1 1128.344 105.186 Q 1129.408 105.826 1130.079 106.397 Q 1131.001 107.18 1131.139 107.311 A 0.684 0.684 0 0 1 1131.153 107.324 A 5.11 5.11 0 0 1 1131.823 108.321 A 3.606 3.606 0 0 1 1132.227 109.961 A 3.615 3.615 0 0 1 1131.223 112.474 A 4.696 4.696 0 0 1 1131.153 112.549 A 3.733 3.733 0 0 1 1130.08 113.346 A 3.327 3.327 0 0 1 1128.614 113.672 A 3.744 3.744 0 0 1 1127.061 113.355 A 3.637 3.637 0 0 1 1125.977 112.598 A 2.738 2.738 0 0 0 1125.869 112.496 Q 1125.633 112.285 1125.098 111.865 A 7.404 7.404 0 0 0 1124.531 111.464 Q 1123.985 111.113 1123.243 110.742 A 12.489 12.489 0 0 0 1122.048 110.225 Q 1121.413 109.987 1120.685 109.78 A 21.188 21.188 0 0 0 1120.46 109.717 A 11.953 11.953 0 0 0 1118.739 109.387 Q 1117.823 109.278 1116.798 109.278 A 15.3 15.3 0 0 0 1113.268 109.71 A 20.725 20.725 0 0 0 1110.352 110.645 A 17.738 17.738 0 0 0 1105.185 113.866 A 21.101 21.101 0 0 0 1104.102 114.893 A 21.696 21.696 0 0 0 1100.96 119.007 A 27.955 27.955 0 0 0 1099.366 122.119 A 21.739 21.739 0 0 0 1097.887 127.151 Q 1097.462 129.606 1097.462 132.422 Q 1097.462 134.278 1097.852 136.182 A 10.464 10.464 0 0 0 1099.152 139.538 A 10.012 10.012 0 0 0 1099.22 139.649 A 7.586 7.586 0 0 0 1101.856 142.188 Q 1103.516 143.164 1105.958 143.164 A 6.486 6.486 0 0 0 1107.475 142.971 Q 1108.171 142.803 1108.935 142.49 A 14.394 14.394 0 0 0 1110.011 141.992 Q 1112.238 140.855 1114.281 138.522 A 21.013 21.013 0 0 0 1114.405 138.379 A 21.84 21.84 0 0 0 1116.377 135.668 Q 1117.225 134.306 1117.995 132.693 A 36.823 36.823 0 0 0 1118.214 132.227 A 26.01 26.01 0 0 0 1119.666 128.174 Q 1120.264 125.977 1120.606 123.438 Q 1120.802 122.071 1121.876 121.143 Q 1122.95 120.215 1124.415 120.215 A 3.151 3.151 0 0 1 1126.612 121.097 A 4.243 4.243 0 0 1 1126.807 121.289 A 4.213 4.213 0 0 1 1127.601 122.437 A 3.701 3.701 0 0 1 1127.93 123.731 Q 1128.005 125.151 1128.195 127.459 A 306.092 306.092 0 0 0 1128.321 128.955 Q 1128.614 132.324 1129.639 135.645 A 17.045 17.045 0 0 0 1131.521 139.774 A 15.204 15.204 0 0 0 1132.716 141.406 A 6.701 6.701 0 0 0 1137.184 143.776 A 9.605 9.605 0 0 0 1138.38 143.848 A 9.109 9.109 0 0 0 1141.976 143.088 A 11.298 11.298 0 0 0 1143.018 142.578 A 20.132 20.132 0 0 0 1145.849 140.667 A 25.248 25.248 0 0 0 1147.511 139.209 A 36.675 36.675 0 0 0 1150.697 135.73 A 42.577 42.577 0 0 0 1151.71 134.424 Q 1153.712 131.738 1155.372 129.004 A 78.866 78.866 0 0 0 1157.294 125.662 A 65.888 65.888 0 0 0 1158.302 123.731 A 314.241 314.241 0 0 0 1159.199 121.923 Q 1159.55 121.209 1159.863 120.563 A 166.036 166.036 0 0 0 1160.45 119.336 A 3.934 3.934 0 0 1 1161.202 118.214 A 3.588 3.588 0 0 1 1161.866 117.676 A 3.68 3.68 0 0 1 1163.868 117.09 A 3.655 3.655 0 0 1 1165.221 117.332 A 3.319 3.319 0 0 1 1166.554 118.311 A 4.755 4.755 0 0 1 1167.227 119.347 A 3.616 3.616 0 0 1 1167.579 120.899 A 3.373 3.373 0 0 1 1167.37 122.052 A 3.966 3.966 0 0 1 1167.286 122.266 A 0.328 0.328 0 0 0 1167.332 122.197 Q 1167.455 121.971 1167.774 121.094 A 36.008 36.008 0 0 0 1167.858 120.86 Q 1168.222 119.84 1168.702 118.311 Q 1169.004 117.349 1169.322 116.203 A 97.36 97.36 0 0 0 1169.825 114.307 A 43.823 43.823 0 0 0 1170.237 112.538 A 52.34 52.34 0 0 0 1170.802 109.375 A 73.604 73.604 0 0 1 1172.596 109.302 A 59.45 59.45 0 0 1 1174.268 109.278 L 1177.247 109.278 Q 1179.238 109.278 1180.24 109.736 A 2 2 0 0 1 1180.909 110.205 A 2.802 2.802 0 0 1 1181.402 111 Q 1181.582 111.43 1181.666 111.969 A 6.633 6.633 0 0 1 1181.739 112.988 A 41.724 41.724 0 0 1 1181.624 116.062 A 49.518 49.518 0 0 1 1180.763 122.217 A 48.952 48.952 0 0 0 1179.786 131.934 A 27.539 27.539 0 0 0 1179.986 135.312 A 21.392 21.392 0 0 0 1181.153 140.186 A 21.662 21.662 0 0 0 1182.203 142.565 A 17.171 17.171 0 0 0 1184.815 146.338 A 15.458 15.458 0 0 0 1190.235 150.147 Q 1193.36 151.465 1196.876 151.465 Q 1202.54 151.465 1207.276 148.438 A 39.244 39.244 0 0 0 1215.821 141.016 Q 1219.63 136.621 1222.608 131.592 A 621.028 621.028 0 0 0 1223.001 130.929 Q 1225.736 126.297 1227.833 122.559 A 3.567 3.567 0 0 0 1228.1 121.838 A 4.206 4.206 0 0 0 1228.223 120.801 A 3.544 3.544 0 0 0 1227.963 119.455 A 4.09 4.09 0 0 0 1227.247 118.311 A 3.127 3.127 0 0 0 1225.669 117.331 A 4.406 4.406 0 0 0 1224.513 117.188 A 3.765 3.765 0 0 0 1222.657 117.676 Q 1221.778 118.164 1221.29 119.043 Q 1219.63 122.266 1217.139 126.563 A 63.58 63.58 0 0 1 1211.524 134.717 A 41.577 41.577 0 0 1 1210.684 135.722 A 36.675 36.675 0 0 1 1204.688 141.309 A 16.16 16.16 0 0 1 1203.635 142.024 A 12.781 12.781 0 0 1 1196.778 144.043 A 7.162 7.162 0 0 1 1196.536 144.039 Q 1195.874 144.017 1195.147 143.873 A 12.243 12.243 0 0 1 1193.751 143.506 A 7.532 7.532 0 0 1 1192.237 142.82 A 9.293 9.293 0 0 1 1190.626 141.602 Q 1189.161 140.235 1188.184 137.94 Q 1187.566 136.487 1187.339 134.546 A 20.862 20.862 0 0 1 1187.208 132.129 Q 1187.208 129.688 1187.501 127.149 Q 1187.794 124.61 1188.184 122.022 Q 1188.575 119.434 1188.868 116.992 Q 1189.161 114.551 1189.161 112.305 A 18.056 18.056 0 0 0 1189.058 110.325 Q 1188.611 106.28 1186.231 104.297 A 9.015 9.015 0 0 0 1183.988 102.942 Q 1182.638 102.365 1180.957 102.094 A 20.324 20.324 0 0 0 1177.735 101.856 A 94.647 94.647 0 0 0 1176.234 101.868 A 109.26 109.26 0 0 0 1174.659 101.905 A 108.02 108.02 0 0 1 1171.388 101.953 A 25.189 25.189 0 0 0 1171.369 101 Q 1171.337 100.175 1171.254 99.245 A 48.136 48.136 0 0 0 1171.046 97.363 Q 1170.704 94.727 1169.923 92.334 A 13.824 13.824 0 0 0 1169.311 90.776 A 10.967 10.967 0 0 0 1167.725 88.281 A 4.619 4.619 0 0 0 1165.979 86.983 A 4.932 4.932 0 0 0 1164.063 86.621 Q 1162.11 86.621 1160.157 88.623 A 20.891 20.891 0 0 0 1158.747 90.228 A 24.903 24.903 0 0 0 1156.641 93.36 A 32.959 32.959 0 0 0 1156.544 93.531 A 30.012 30.012 0 0 0 1154.151 98.926 Q 1153.223 101.758 1153.223 103.418 Q 1153.223 104.611 1153.499 105.529 A 4.314 4.314 0 0 0 1154.2 106.934 A 5.657 5.657 0 0 0 1156.69 108.789 A 9.842 9.842 0 0 0 1157.468 109.054 A 10.975 10.975 0 0 0 1159.962 109.473 A 66.923 66.923 0 0 0 1160.181 109.485 A 61.309 61.309 0 0 0 1163.38 109.571 Q 1162.721 112.793 1162.226 114.752 A 39.167 39.167 0 0 1 1161.915 115.918 Q 1161.329 117.969 1160.938 118.848 A 28.928 28.928 0 0 1 1160.882 118.975 Q 1160.533 119.748 1160.352 120.02 A 0.789 0.789 0 0 0 1160.33 120.054 Q 1160.209 120.259 1160.172 120.592 A 2.834 2.834 0 0 0 1160.157 120.899 Q 1160.157 122.461 1161.329 123.487 A 4.844 4.844 0 0 0 1161.851 123.886 A 3.601 3.601 0 0 0 1163.868 124.512 A 4.819 4.819 0 0 0 1164.39 124.484 Q 1166.417 124.264 1167.286 122.266 Z M 337.403 136.621 L 337.501 141.211 A 145.134 145.134 0 0 1 339.185 137.757 A 188.465 188.465 0 0 1 341.114 134.033 A 250.581 250.581 0 0 1 344.927 127.133 A 277.75 277.75 0 0 1 345.509 126.123 A 163.221 163.221 0 0 1 350.489 118.067 A 97.683 97.683 0 0 1 355.605 110.988 A 89.404 89.404 0 0 1 355.958 110.547 Q 358.181 107.863 360.435 106.354 A 13.528 13.528 0 0 1 361.671 105.615 Q 364.231 104.27 366.521 104.121 A 8.727 8.727 0 0 1 367.091 104.102 A 10.673 10.673 0 0 1 369.332 104.327 A 8.28 8.28 0 0 1 371.534 105.127 A 8.867 8.867 0 0 1 374.659 107.91 A 12.387 12.387 0 0 1 376.061 110.604 A 15.193 15.193 0 0 1 376.514 112.012 Q 377.149 114.356 377.149 117.09 A 30.972 30.972 0 0 1 377.106 118.642 Q 377.018 120.387 376.749 122.756 A 106.837 106.837 0 0 1 376.71 123.096 Q 376.27 126.856 376.27 130.957 Q 376.27 133.301 376.514 135.596 A 20.958 20.958 0 0 0 376.856 137.769 A 15.811 15.811 0 0 0 377.393 139.697 A 7.564 7.564 0 0 0 378.247 141.424 A 6.283 6.283 0 0 0 379.298 142.627 A 4.37 4.37 0 0 0 381.356 143.629 A 6.268 6.268 0 0 0 382.618 143.75 A 8.917 8.917 0 0 0 385.951 143.084 A 11.399 11.399 0 0 0 387.305 142.432 A 20.202 20.202 0 0 0 390.126 140.499 A 25.648 25.648 0 0 0 391.895 138.916 A 44.431 44.431 0 0 0 395.612 134.779 A 49.732 49.732 0 0 0 396.192 134.033 A 67.176 67.176 0 0 0 399.482 129.334 A 60.741 60.741 0 0 0 399.903 128.662 A 77.662 77.662 0 0 0 401.826 125.382 A 64.648 64.648 0 0 0 402.833 123.487 Q 404.039 121.12 404.805 119.504 A 79.171 79.171 0 0 0 404.884 119.336 Q 405.752 117.338 407.78 117.118 A 4.819 4.819 0 0 1 408.302 117.09 A 3.789 3.789 0 0 1 409.516 117.276 A 3.12 3.12 0 0 1 410.938 118.262 A 4.404 4.404 0 0 1 411.631 119.384 A 3.646 3.646 0 0 1 411.915 120.801 A 3.679 3.679 0 0 1 411.622 122.266 Q 411.303 122.904 410.495 124.65 A 419.654 419.654 0 0 0 410.108 125.488 Q 408.985 127.93 407.081 131.153 A 80.692 80.692 0 0 1 404.596 135.083 A 100.547 100.547 0 0 1 402.638 137.891 A 48.738 48.738 0 0 1 397.022 144.385 Q 393.946 147.363 390.382 149.268 A 15.641 15.641 0 0 1 382.911 151.172 Q 379.478 151.172 377.072 150.06 A 9.104 9.104 0 0 1 375.684 149.268 A 13.191 13.191 0 0 1 371.436 144.434 A 20.011 20.011 0 0 1 369.715 139.655 A 23.738 23.738 0 0 1 369.386 137.891 A 48.399 48.399 0 0 1 368.857 131.717 A 43.976 43.976 0 0 1 368.848 130.86 A 47.953 47.953 0 0 1 368.906 128.567 A 58.46 58.46 0 0 1 368.995 127.1 A 149.096 149.096 0 0 1 369.337 123.145 A 288.045 288.045 0 0 0 369.52 121.253 A 235.339 235.339 0 0 0 369.679 119.483 A 48.818 48.818 0 0 0 369.768 118.276 Q 369.796 117.805 369.811 117.387 A 23.061 23.061 0 0 0 369.825 116.602 Q 369.825 114.345 369.364 113.174 A 2.736 2.736 0 0 0 368.995 112.5 Q 368.334 111.645 367.519 111.471 A 2.041 2.041 0 0 0 367.091 111.426 A 3.36 3.36 0 0 0 365.884 111.67 Q 364.902 112.048 363.777 113.012 A 13.161 13.161 0 0 0 363.526 113.233 A 25.447 25.447 0 0 0 361.802 114.957 Q 360.597 116.275 359.327 117.969 A 69.743 69.743 0 0 0 356.855 121.497 A 87.796 87.796 0 0 0 354.932 124.561 A 348.339 348.339 0 0 0 350.684 131.836 A 180.359 180.359 0 0 0 348.273 136.219 A 149.509 149.509 0 0 0 346.973 138.721 A 1648.254 1648.254 0 0 0 346.18 140.286 Q 345.12 142.381 344.348 143.924 A 549.132 549.132 0 0 0 344.239 144.141 Q 342.421 147.777 340.564 149.303 A 6.292 6.292 0 0 1 340.089 149.658 A 11.128 11.128 0 0 1 338.819 150.405 Q 338.145 150.739 337.523 150.907 A 4.597 4.597 0 0 1 336.329 151.074 A 6.087 6.087 0 0 1 334.258 150.738 Q 332.722 150.186 331.722 148.728 A 6.581 6.581 0 0 1 331.69 148.682 Q 330.079 146.289 330.079 142.871 L 330.079 136.719 A 13005.205 13005.205 0 0 1 330.091 118.689 A 11241.926 11241.926 0 0 1 330.128 101.514 A 1268.193 1268.193 0 0 1 330.274 85.352 A 1012.463 1012.463 0 0 1 330.616 70.362 A 536.969 536.969 0 0 1 331.202 56.641 A 393.774 393.774 0 0 1 332.081 44.287 Q 332.866 35.353 334.252 28.421 A 90.045 90.045 0 0 1 335.157 24.365 A 59.274 59.274 0 0 1 336.624 19.355 Q 338.249 14.64 340.382 11.621 A 12.261 12.261 0 0 1 342.696 9.11 A 8.766 8.766 0 0 1 348.341 7.129 Q 352.442 7.129 355.274 9.375 A 14.843 14.843 0 0 1 358.495 12.966 A 19.346 19.346 0 0 1 359.864 15.479 A 29.492 29.492 0 0 1 361.456 19.936 A 40.055 40.055 0 0 1 362.403 24.463 A 69.563 69.563 0 0 1 363.147 32.802 A 79.63 79.63 0 0 1 363.184 35.254 A 121.202 121.202 0 0 1 361.085 57.862 A 166.048 166.048 0 0 1 355.47 79.492 Q 351.954 90.039 347.266 100.049 A 351.609 351.609 0 0 1 337.403 119.531 L 337.403 123.731 L 337.403 128.613 L 337.403 133.203 L 337.403 136.621 Z M 690.43 121.094 A 91.442 91.442 0 0 0 692.376 128.76 Q 696.919 143.653 704.298 143.653 A 9.84 9.84 0 0 0 709.097 142.373 A 13.465 13.465 0 0 0 711.036 141.065 A 32.08 32.08 0 0 0 715.214 137.005 A 38.906 38.906 0 0 0 717.042 134.717 A 56.945 56.945 0 0 0 721.973 126.758 A 183.628 183.628 0 0 0 723.475 123.76 Q 724.2 122.277 724.805 120.958 A 92.973 92.973 0 0 0 725.489 119.434 Q 726.391 117.268 728.544 117.104 A 4.757 4.757 0 0 1 728.907 117.09 A 3.42 3.42 0 0 1 731.433 118.146 A 4.279 4.279 0 0 1 731.544 118.262 Q 732.618 119.434 732.618 120.801 A 3.528 3.528 0 0 1 732.554 121.491 A 2.676 2.676 0 0 1 732.325 122.168 Q 731.802 123.439 730.906 125.369 A 175.532 175.532 0 0 1 730.323 126.612 A 60.485 60.485 0 0 1 728.858 129.492 A 79.688 79.688 0 0 1 727.1 132.569 A 101.074 101.074 0 0 1 723.997 137.412 A 116.246 116.246 0 0 1 722.852 139.063 A 38.211 38.211 0 0 1 717.677 145.02 A 29.548 29.548 0 0 1 712.849 148.692 A 26.867 26.867 0 0 1 711.671 149.365 A 13.912 13.912 0 0 1 704.981 151.074 A 15.57 15.57 0 0 1 693.751 146.533 Q 689.293 142.215 685.984 132.554 A 76.69 76.69 0 0 1 685.645 131.543 Q 680.958 141.504 676.173 145.996 A 18.39 18.39 0 0 1 672.318 148.819 A 13.527 13.527 0 0 1 665.821 150.488 Q 662.891 150.488 660.157 149.561 A 11.76 11.76 0 0 1 655.372 146.485 A 14.186 14.186 0 0 1 653.312 143.681 A 19.152 19.152 0 0 1 652.052 140.967 A 18.159 18.159 0 0 1 651.184 137.729 Q 650.908 136.17 650.821 134.385 A 34.6 34.6 0 0 1 650.782 132.715 A 33.816 33.816 0 0 1 651.791 124.334 A 29.672 29.672 0 0 1 653.126 120.313 A 34.97 34.97 0 0 1 656.59 113.862 A 29.853 29.853 0 0 1 659.18 110.596 Q 662.891 106.543 667.432 104.297 A 22.102 22.102 0 0 1 672.49 102.489 A 18.482 18.482 0 0 1 676.466 102.051 Q 677.93 102.051 679.005 103.076 A 3.407 3.407 0 0 1 680.078 105.561 A 4.469 4.469 0 0 1 680.079 105.664 A 3.75 3.75 0 0 1 679.2 108.106 A 3.481 3.481 0 0 1 676.992 109.355 A 4.505 4.505 0 0 1 676.856 109.375 A 20.069 20.069 0 0 0 673.633 110.093 A 27.411 27.411 0 0 0 670.606 111.231 A 19.663 19.663 0 0 0 665.386 114.641 A 22.875 22.875 0 0 0 664.503 115.479 A 19.77 19.77 0 0 0 661.473 119.433 A 25.828 25.828 0 0 0 659.913 122.559 Q 658.226 126.57 658.114 132.029 A 38.21 38.21 0 0 0 658.106 132.813 Q 658.106 136.122 659.026 138.444 A 8.869 8.869 0 0 0 660.108 140.43 A 6.508 6.508 0 0 0 664.869 143.109 A 9.614 9.614 0 0 0 665.919 143.164 A 6.694 6.694 0 0 0 667.634 142.93 Q 668.366 142.736 669.136 142.382 A 11.197 11.197 0 0 0 669.239 142.334 A 7.18 7.18 0 0 0 670.476 141.573 Q 671.685 140.665 672.999 139.063 A 25.959 25.959 0 0 0 674.288 137.337 Q 675.748 135.218 677.393 132.129 A 78.85 78.85 0 0 0 679.102 128.706 Q 679.947 126.913 680.851 124.814 A 187.456 187.456 0 0 0 682.716 120.313 A 233.754 233.754 0 0 1 681.319 112.289 Q 680.673 108.176 680.079 103.595 A 400.104 400.104 0 0 1 679.688 100.488 A 179.212 179.212 0 0 1 678.663 88.599 A 243.209 243.209 0 0 1 678.321 75.391 A 207.198 207.198 0 0 1 678.541 66.007 A 235.847 235.847 0 0 1 678.712 62.744 A 163.056 163.056 0 0 1 679.981 49.854 A 110.031 110.031 0 0 1 681.629 40.763 A 97.156 97.156 0 0 1 682.325 37.891 Q 683.79 32.227 685.889 27.93 A 26.47 26.47 0 0 1 687.848 24.543 Q 689.046 22.802 690.424 21.504 A 15.744 15.744 0 0 1 690.821 21.143 Q 693.653 18.653 697.266 18.653 A 9.813 9.813 0 0 1 700.03 19.026 A 7.98 7.98 0 0 1 702.735 20.41 Q 704.981 22.168 706.397 25.293 Q 707.813 28.418 708.497 32.813 A 56.418 56.418 0 0 1 709.05 38.035 A 72.87 72.87 0 0 1 709.18 42.481 Q 709.18 53.809 707.227 65.137 Q 705.274 76.465 702.393 86.817 A 272.654 272.654 0 0 1 698.707 98.999 A 221.515 221.515 0 0 1 696.29 105.957 A 517.316 517.316 0 0 1 693.955 112.206 Q 693.017 114.666 692.136 116.888 A 281.514 281.514 0 0 1 690.43 121.094 Z M 1047.755 122.266 A 131.306 131.306 0 0 0 1047.544 122.689 Q 1047.202 123.38 1046.563 124.683 A 1839.225 1839.225 0 0 0 1046.143 125.537 A 63.703 63.703 0 0 1 1045.132 127.508 Q 1044.555 128.588 1043.873 129.78 A 118.206 118.206 0 0 1 1043.018 131.25 A 80.692 80.692 0 0 1 1040.533 135.18 A 100.547 100.547 0 0 1 1038.575 137.988 A 44.62 44.62 0 0 1 1032.911 144.434 A 30.898 30.898 0 0 1 1026.173 149.268 Q 1022.559 151.172 1018.555 151.172 A 14.646 14.646 0 0 1 1013.492 150.324 A 13 13 0 0 1 1009.034 147.559 A 20.572 20.572 0 0 1 1003.923 139.897 A 24.761 24.761 0 0 1 1003.419 138.477 A 31.9 31.9 0 0 1 999.533 143.743 A 25.806 25.806 0 0 1 995.509 147.315 A 19.664 19.664 0 0 1 991.815 149.418 A 13.902 13.902 0 0 1 986.329 150.586 A 17.094 17.094 0 0 1 982.38 150.146 A 14.38 14.38 0 0 1 979.786 149.268 A 14.084 14.084 0 0 1 974.805 145.557 A 16.936 16.936 0 0 1 971.966 140.832 A 19.695 19.695 0 0 1 971.632 139.942 A 20.304 20.304 0 0 1 970.588 134.892 A 24.347 24.347 0 0 1 970.509 132.91 A 38.224 38.224 0 0 1 971.077 126.166 A 28.884 28.884 0 0 1 973.096 119.483 A 33.927 33.927 0 0 1 976.456 113.548 A 28.003 28.003 0 0 1 979.688 109.766 A 27.872 27.872 0 0 1 986.306 104.929 A 25.657 25.657 0 0 1 988.526 103.906 A 27.783 27.783 0 0 1 993.566 102.382 A 22.166 22.166 0 0 1 997.852 101.953 A 19.298 19.298 0 0 1 1001.275 102.246 A 16.032 16.032 0 0 1 1003.419 102.783 A 33.047 33.047 0 0 1 1005.5 103.538 Q 1006.436 103.915 1007.242 104.318 A 18.749 18.749 0 0 1 1007.764 104.59 A 26.276 26.276 0 0 1 1008.813 105.186 Q 1009.876 105.826 1010.548 106.397 Q 1011.469 107.18 1011.608 107.311 A 0.684 0.684 0 0 1 1011.622 107.324 A 5.11 5.11 0 0 1 1012.292 108.321 A 3.606 3.606 0 0 1 1012.696 109.961 A 3.615 3.615 0 0 1 1011.692 112.474 A 4.696 4.696 0 0 1 1011.622 112.549 A 3.733 3.733 0 0 1 1010.549 113.346 A 3.327 3.327 0 0 1 1009.083 113.672 A 3.744 3.744 0 0 1 1007.53 113.355 A 3.637 3.637 0 0 1 1006.446 112.598 A 2.738 2.738 0 0 0 1006.337 112.496 Q 1006.101 112.285 1005.567 111.865 A 7.404 7.404 0 0 0 1004.999 111.464 Q 1004.453 111.113 1003.712 110.742 A 12.489 12.489 0 0 0 1002.517 110.225 Q 1001.882 109.987 1001.154 109.78 A 21.188 21.188 0 0 0 1000.929 109.717 A 11.953 11.953 0 0 0 999.207 109.387 Q 998.292 109.278 997.266 109.278 A 15.3 15.3 0 0 0 993.737 109.71 A 20.725 20.725 0 0 0 990.821 110.645 A 17.738 17.738 0 0 0 985.654 113.866 A 21.101 21.101 0 0 0 984.571 114.893 A 21.696 21.696 0 0 0 981.429 119.007 A 27.955 27.955 0 0 0 979.835 122.119 A 21.739 21.739 0 0 0 978.356 127.151 Q 977.93 129.606 977.93 132.422 Q 977.93 134.278 978.321 136.182 A 10.464 10.464 0 0 0 979.62 139.538 A 10.012 10.012 0 0 0 979.688 139.649 A 7.586 7.586 0 0 0 982.325 142.188 Q 983.985 143.164 986.427 143.164 A 6.486 6.486 0 0 0 987.943 142.971 Q 988.64 142.803 989.403 142.49 A 14.394 14.394 0 0 0 990.479 141.992 Q 992.706 140.855 994.75 138.522 A 21.013 21.013 0 0 0 994.874 138.379 A 21.84 21.84 0 0 0 996.846 135.668 Q 997.694 134.306 998.464 132.693 A 36.823 36.823 0 0 0 998.682 132.227 A 26.01 26.01 0 0 0 1000.135 128.174 Q 1000.733 125.977 1001.075 123.438 Q 1001.27 122.071 1002.345 121.143 Q 1003.419 120.215 1004.884 120.215 A 3.151 3.151 0 0 1 1007.081 121.097 A 4.243 4.243 0 0 1 1007.276 121.289 A 4.213 4.213 0 0 1 1008.07 122.437 A 3.701 3.701 0 0 1 1008.399 123.731 Q 1008.474 125.151 1008.663 127.459 A 306.092 306.092 0 0 0 1008.79 128.955 Q 1009.083 132.324 1010.108 135.645 A 17.045 17.045 0 0 0 1011.989 139.774 A 15.204 15.204 0 0 0 1013.184 141.406 A 6.701 6.701 0 0 0 1017.653 143.776 A 9.605 9.605 0 0 0 1018.848 143.848 A 9.109 9.109 0 0 0 1022.445 143.088 A 11.298 11.298 0 0 0 1023.487 142.578 A 20.132 20.132 0 0 0 1026.318 140.667 A 25.248 25.248 0 0 0 1027.979 139.209 A 36.675 36.675 0 0 0 1031.165 135.73 A 42.577 42.577 0 0 0 1032.179 134.424 Q 1034.18 131.738 1035.841 129.004 A 78.866 78.866 0 0 0 1037.763 125.662 A 65.888 65.888 0 0 0 1038.77 123.731 A 314.241 314.241 0 0 0 1039.668 121.923 Q 1040.018 121.209 1040.331 120.563 A 166.036 166.036 0 0 0 1040.919 119.336 A 3.934 3.934 0 0 1 1041.671 118.214 A 3.588 3.588 0 0 1 1042.335 117.676 A 3.68 3.68 0 0 1 1044.337 117.09 A 3.655 3.655 0 0 1 1045.689 117.332 A 3.319 3.319 0 0 1 1047.022 118.311 A 4.755 4.755 0 0 1 1047.696 119.347 A 3.616 3.616 0 0 1 1048.048 120.899 A 3.373 3.373 0 0 1 1047.839 122.052 A 3.966 3.966 0 0 1 1047.755 122.266 Z M 311.622 138.77 Q 309.18 138.77 307.325 138.379 Q 305.86 141.309 303.809 143.799 A 23.147 23.147 0 0 1 299.073 148.145 Q 296.388 150 293.067 151.074 A 22.256 22.256 0 0 1 287.992 152.064 A 26.72 26.72 0 0 1 285.841 152.149 A 22.723 22.723 0 0 1 280.425 151.523 A 19.589 19.589 0 0 1 277.442 150.537 A 20.302 20.302 0 0 1 270.802 146.045 A 19.759 19.759 0 0 1 266.764 139.984 A 22.949 22.949 0 0 1 266.407 139.112 Q 264.845 135.059 264.845 130.176 A 29.403 29.403 0 0 1 265.306 124.843 A 21.722 21.722 0 0 1 267.091 119.287 A 35.057 35.057 0 0 1 269.467 115.1 A 26.127 26.127 0 0 1 272.266 111.572 A 28.21 28.21 0 0 1 274.784 109.217 Q 276.455 107.846 278.126 106.983 A 25.537 25.537 0 0 1 279.499 106.32 Q 280.824 105.734 281.758 105.551 A 4.011 4.011 0 0 1 282.52 105.469 A 4.985 4.985 0 0 1 283.471 105.554 Q 284.011 105.659 284.428 105.894 A 2.457 2.457 0 0 1 285.011 106.348 A 2.966 2.966 0 0 1 285.755 107.813 A 4.306 4.306 0 0 1 285.841 108.692 A 4.266 4.266 0 0 1 285.735 109.67 Q 285.512 110.618 284.815 111.182 A 11.213 11.213 0 0 1 283.815 111.899 Q 283.284 112.24 282.656 112.572 A 20.335 20.335 0 0 1 282.227 112.793 A 15.093 15.093 0 0 0 280.823 113.598 Q 280.128 114.045 279.398 114.605 A 26.026 26.026 0 0 0 278.907 114.99 A 15.938 15.938 0 0 0 276.83 117.017 A 20.151 20.151 0 0 0 275.636 118.555 A 17.611 17.611 0 0 0 274.027 121.382 A 22.572 22.572 0 0 0 273.145 123.633 A 18.833 18.833 0 0 0 272.312 127.51 A 24.052 24.052 0 0 0 272.169 130.176 A 18.757 18.757 0 0 0 272.652 134.491 A 16.616 16.616 0 0 0 273.145 136.182 A 14.001 14.001 0 0 0 274.991 139.762 A 12.71 12.71 0 0 0 275.977 140.967 Q 277.833 142.969 280.372 144.092 A 13.194 13.194 0 0 0 284.417 145.136 A 16.19 16.19 0 0 0 286.036 145.215 Q 291.602 145.215 295.264 142.627 A 17.171 17.171 0 0 0 300.88 136.035 Q 295.118 133.008 291.407 127.442 A 22.032 22.032 0 0 1 287.696 114.942 A 18.911 18.911 0 0 1 288.074 111.055 Q 288.615 108.479 289.93 106.493 A 11.607 11.607 0 0 1 290.382 105.86 A 9.032 9.032 0 0 1 293.166 103.395 Q 294.985 102.385 297.275 102.346 A 10.851 10.851 0 0 1 297.462 102.344 A 10.303 10.303 0 0 1 302.442 103.613 Q 304.786 104.883 306.593 107.617 Q 308.399 110.352 309.473 114.649 A 33.16 33.16 0 0 1 310.207 118.716 Q 310.548 121.546 310.548 124.903 A 27.817 27.817 0 0 1 310.178 129.338 A 33.237 33.237 0 0 1 309.766 131.446 A 7.117 7.117 0 0 0 310.938 131.543 L 312.208 131.543 A 24.235 24.235 0 0 0 315.357 131.348 A 18.21 18.21 0 0 0 318.165 130.762 Q 320.802 129.981 322.95 128.418 Q 325.098 126.856 326.807 124.414 A 36.435 36.435 0 0 0 328.633 121.51 A 48.019 48.019 0 0 0 330.079 118.75 A 1.736 1.736 0 0 1 330.374 118.34 Q 330.719 117.973 331.348 117.627 A 4.489 4.489 0 0 1 332.356 117.216 A 3.661 3.661 0 0 1 333.302 117.09 A 3.2 3.2 0 0 1 334.978 117.575 A 4.556 4.556 0 0 1 335.694 118.115 A 3.396 3.396 0 0 1 336.806 120.483 A 4.647 4.647 0 0 1 336.817 120.801 A 3.661 3.661 0 0 1 336.723 121.606 Q 336.625 122.039 336.427 122.51 A 32.186 32.186 0 0 1 336.036 123.401 A 26.018 26.018 0 0 1 335.645 124.219 A 40.014 40.014 0 0 1 331.788 129.834 Q 329.591 132.52 326.612 134.522 A 25.281 25.281 0 0 1 321.289 137.227 A 28.997 28.997 0 0 1 319.923 137.696 A 23.113 23.113 0 0 1 315.348 138.625 Q 313.564 138.811 311.622 138.77 Z M 1050.44 116.895 A 122.666 122.666 0 0 0 1050.549 116.637 Q 1051.309 114.838 1051.856 113.379 Q 1053.028 116.211 1054.444 118.799 Q 1055.86 121.387 1057.081 123.828 A 37.597 37.597 0 0 1 1057.269 124.21 A 34.032 34.032 0 0 1 1059.083 128.711 Q 1059.864 131.153 1059.864 133.594 Q 1059.864 134.326 1059.692 135.23 A 15.022 15.022 0 0 1 1059.425 136.377 Q 1058.985 137.988 1058.009 139.405 A 7.743 7.743 0 0 1 1057.253 140.336 A 8.763 8.763 0 0 1 1055.421 141.797 A 5.867 5.867 0 0 1 1055.298 141.869 Q 1053.721 142.774 1051.466 142.774 A 6.939 6.939 0 0 1 1049.171 142.383 A 10.605 10.605 0 0 1 1048.229 142.006 A 8.019 8.019 0 0 1 1047.218 141.455 A 35.168 35.168 0 0 1 1046.842 141.209 Q 1046.54 141.008 1046.275 140.822 A 18.949 18.949 0 0 1 1045.802 140.479 Q 1045.216 140.039 1045.118 139.844 A 3.637 3.637 0 0 0 1044.034 139.086 A 3.744 3.744 0 0 0 1042.481 138.77 A 3.417 3.417 0 0 0 1040.971 139.11 A 3.986 3.986 0 0 0 1039.893 139.893 A 4.662 4.662 0 0 0 1039.709 140.088 A 3.498 3.498 0 0 0 1038.77 142.481 A 3.144 3.144 0 0 0 1038.875 143.287 A 3.499 3.499 0 0 0 1039.356 144.336 Q 1042.872 149.61 1048.487 151.905 A 29.866 29.866 0 0 0 1051.536 152.962 A 32.815 32.815 0 0 0 1060.645 154.199 A 34.767 34.767 0 0 0 1063.652 154.072 A 28.698 28.698 0 0 0 1070.704 152.588 Q 1075.294 150.977 1079.151 148.291 Q 1083.009 145.606 1086.134 142.188 A 65.799 65.799 0 0 0 1087.092 141.116 A 58.505 58.505 0 0 0 1091.651 135.205 A 74.812 74.812 0 0 0 1093.349 132.559 A 61.749 61.749 0 0 0 1095.753 128.272 A 112.917 112.917 0 0 0 1096.396 126.984 Q 1097.672 124.388 1098.536 122.266 A 3.679 3.679 0 0 0 1098.829 120.801 Q 1098.829 119.434 1097.901 118.262 A 2.946 2.946 0 0 0 1096.455 117.255 A 3.762 3.762 0 0 0 1095.313 117.09 A 2.38 2.38 0 0 0 1093.903 117.535 Q 1093.121 118.09 1092.579 119.336 A 83.158 83.158 0 0 1 1091.888 120.863 A 92.543 92.543 0 0 1 1087.501 129.151 Q 1084.571 134.082 1080.811 138.135 A 32.758 32.758 0 0 1 1072.364 144.727 A 21.183 21.183 0 0 1 1062.11 147.266 L 1061.134 147.266 Q 1060.645 147.266 1060.157 147.168 A 17.844 17.844 0 0 0 1061.773 145.958 A 14.084 14.084 0 0 0 1065.626 140.918 A 18.919 18.919 0 0 0 1067.286 133.106 A 17.407 17.407 0 0 0 1067.268 132.318 A 18.571 18.571 0 0 0 1066.163 126.856 A 56.526 56.526 0 0 0 1064.881 123.621 A 74.018 74.018 0 0 0 1063.282 120.166 A 325.164 325.164 0 0 0 1061.402 116.419 A 437.9 437.9 0 0 0 1059.278 112.305 A 81.949 81.949 0 0 1 1059.274 112.296 Q 1058.144 110.135 1057.014 107.652 A 130.623 130.623 0 0 1 1054.786 102.442 A 357.213 357.213 0 0 0 1054.809 102.329 Q 1055.281 100.06 1055.567 98.535 Q 1055.86 96.973 1055.86 95.41 Q 1055.86 92.578 1054.542 90.625 A 5.367 5.367 0 0 0 1054.101 90.056 A 4.003 4.003 0 0 0 1050.977 88.672 A 5.738 5.738 0 0 0 1050.701 88.679 Q 1048.458 88.787 1047.169 90.674 A 6.723 6.723 0 0 0 1046.676 91.525 Q 1045.802 93.321 1045.802 95.899 Q 1045.802 97.559 1046.095 99.121 Q 1046.28 100.11 1046.622 101.373 A 52.385 52.385 0 0 0 1047.071 102.93 A 66.804 66.804 0 0 1 1047.022 103.18 A 61.248 61.248 0 0 1 1045.069 110.596 Q 1043.848 114.258 1041.309 119.141 Q 1040.919 119.922 1040.821 120.264 A 2.09 2.09 0 0 0 1040.784 120.418 Q 1040.752 120.571 1040.737 120.748 A 4.112 4.112 0 0 0 1040.723 121.094 A 3.36 3.36 0 0 0 1041.7 123.487 A 3.17 3.17 0 0 0 1043.188 124.368 A 4.339 4.339 0 0 0 1044.337 124.512 A 4.258 4.258 0 0 0 1044.781 124.489 A 3.129 3.129 0 0 0 1046.729 123.584 A 7.143 7.143 0 0 0 1047.182 123.084 Q 1047.873 122.249 1048.536 120.996 Q 1049.61 118.848 1050.44 116.895 Z M 613.184 138.77 Q 615.235 141.602 618.458 143.311 A 13.946 13.946 0 0 0 622.171 144.619 Q 623.796 144.957 625.667 145.01 A 24.82 24.82 0 0 0 626.368 145.02 A 17.184 17.184 0 0 0 633.051 143.729 A 16.506 16.506 0 0 0 635.059 142.725 A 28.122 28.122 0 0 0 641.165 137.844 A 32.493 32.493 0 0 0 642.188 136.719 A 47.7 47.7 0 0 0 647.468 129.271 A 53.137 53.137 0 0 0 647.95 128.418 Q 650.489 123.828 652.54 119.238 Q 653.028 118.164 653.907 117.627 Q 654.786 117.09 655.86 117.09 A 3.813 3.813 0 0 1 657.17 117.306 A 3.31 3.31 0 0 1 658.546 118.262 A 4.427 4.427 0 0 1 659.238 119.305 A 3.503 3.503 0 0 1 659.571 120.801 A 4.112 4.112 0 0 1 659.557 121.147 Q 659.542 121.324 659.511 121.477 A 2.09 2.09 0 0 1 659.473 121.631 A 3.67 3.67 0 0 1 659.351 121.985 Q 659.278 122.168 659.18 122.363 Q 654.411 132.869 649.031 139.706 A 46.168 46.168 0 0 1 644.483 144.727 A 29.263 29.263 0 0 1 636.56 150.167 A 25.206 25.206 0 0 1 626.466 152.442 A 28.121 28.121 0 0 1 621.162 151.965 A 20.638 20.638 0 0 1 615.333 149.951 A 23.835 23.835 0 0 1 609.022 145.166 A 22.329 22.329 0 0 1 607.618 143.506 A 27.167 27.167 0 0 1 603.126 134.571 Q 601.661 129.59 601.661 124.61 A 35.571 35.571 0 0 1 602.091 118.971 A 29.31 29.31 0 0 1 602.882 115.43 A 25.041 25.041 0 0 1 604.71 110.822 A 20.971 20.971 0 0 1 606.397 108.106 A 17.365 17.365 0 0 1 610.334 104.187 A 16.143 16.143 0 0 1 611.866 103.223 Q 615.04 101.465 618.848 101.465 Q 621.095 101.465 623.292 102.393 A 12.751 12.751 0 0 1 627.247 105.03 A 12.752 12.752 0 0 1 629.725 108.433 A 14.942 14.942 0 0 1 630.079 109.18 A 12.523 12.523 0 0 1 631.002 112.499 A 16.158 16.158 0 0 1 631.153 114.746 A 20.789 20.789 0 0 1 630.125 121.323 A 19.59 19.59 0 0 1 629.786 122.266 A 25.286 25.286 0 0 1 626.026 128.809 Q 623.634 131.836 620.313 134.375 Q 616.993 136.914 613.184 138.77 Z M 337.501 105.176 A 371.941 371.941 0 0 0 343.241 91.947 A 333.452 333.452 0 0 0 344.971 87.647 A 177.997 177.997 0 0 0 350.733 70.606 Q 353.126 62.11 354.493 53.369 A 116.226 116.226 0 0 0 355.839 37.513 A 129.387 129.387 0 0 0 355.86 35.156 A 50.288 50.288 0 0 0 355.851 34.259 Q 355.824 32.739 355.714 30.176 Q 355.567 26.758 354.835 23.242 A 23.522 23.522 0 0 0 353.845 19.779 A 18.281 18.281 0 0 0 352.589 17.09 A 6.096 6.096 0 0 0 351.494 15.671 A 4.432 4.432 0 0 0 348.341 14.453 Q 346.192 14.453 344.63 17.334 A 21.099 21.099 0 0 0 343.557 19.67 Q 342.646 21.987 341.895 25.147 A 82.252 82.252 0 0 0 340.945 29.77 Q 340.522 32.148 340.17 34.813 A 142.67 142.67 0 0 0 339.942 36.621 Q 339.161 43.164 338.673 50.488 Q 338.184 57.813 337.94 65.528 A 828.388 828.388 0 0 0 337.611 79.607 A 757.793 757.793 0 0 0 337.598 80.518 A 1127.273 1127.273 0 0 0 337.525 87.561 A 918.734 918.734 0 0 0 337.501 94.141 L 337.501 105.176 Z M 701.856 42.383 A 91.54 91.54 0 0 0 701.82 39.844 A 114.577 114.577 0 0 0 701.71 37.11 Q 701.563 34.278 701.026 31.787 A 21.598 21.598 0 0 0 700.575 30.036 Q 700.159 28.675 699.61 27.637 A 4.223 4.223 0 0 0 699.086 26.853 Q 698.688 26.391 698.203 26.173 A 2.252 2.252 0 0 0 697.266 25.977 Q 694.825 25.977 692.725 30.274 Q 691.202 33.392 689.961 37.925 A 79.57 79.57 0 0 0 689.063 41.553 A 118.627 118.627 0 0 0 687.659 48.999 Q 687.037 52.954 686.573 57.373 A 170.598 170.598 0 0 0 685.645 75.196 Q 685.645 83.789 686.329 92.383 A 372.788 372.788 0 0 0 687.013 100.032 Q 687.373 103.622 687.776 106.812 A 218.691 218.691 0 0 0 687.891 107.715 A 318.945 318.945 0 0 0 693.263 92.237 A 202.331 202.331 0 0 0 697.706 75.977 A 182.312 182.312 0 0 0 700.733 59.229 A 127.694 127.694 0 0 0 701.856 42.383 Z M 931.739 158.692 A 79.366 79.366 0 0 0 919.347 165.726 A 69.566 69.566 0 0 0 915.089 168.946 A 84.517 84.517 0 0 0 907.241 176.209 A 69.038 69.038 0 0 0 902.784 181.397 A 60.967 60.967 0 0 0 897.912 188.667 A 48.5 48.5 0 0 0 895.118 194.434 A 40.235 40.235 0 0 0 893.321 199.948 Q 892.586 202.97 892.494 205.753 A 23.953 23.953 0 0 0 892.481 206.543 A 21.232 21.232 0 0 0 892.96 211.122 A 18.577 18.577 0 0 0 893.507 213.086 A 16.239 16.239 0 0 0 896.01 217.821 A 15.351 15.351 0 0 0 896.485 218.408 Q 898.438 220.703 901.27 221.973 A 14.541 14.541 0 0 0 905.695 223.142 A 18 18 0 0 0 907.618 223.242 A 20.8 20.8 0 0 0 912.215 222.757 A 15.938 15.938 0 0 0 916.749 220.996 A 21.657 21.657 0 0 0 923.214 215.178 A 24.725 24.725 0 0 0 923.389 214.942 A 32.206 32.206 0 0 0 927.083 208.335 A 37.547 37.547 0 0 0 927.882 206.25 A 73.266 73.266 0 0 0 930.616 196.143 A 82.005 82.005 0 0 0 931.983 185.694 A 167.51 167.51 0 0 0 932.24 180.652 A 133.141 133.141 0 0 0 932.325 175.977 A 190.339 190.339 0 0 0 932.13 167.432 A 17556.846 17556.846 0 0 1 931.739 158.692 Z M 610.255 132.422 A 23.811 23.811 0 0 0 615.772 129.199 A 23.626 23.626 0 0 0 619.216 125.909 A 21.26 21.26 0 0 0 620.02 124.903 A 20.035 20.035 0 0 0 622.622 120.314 A 18.761 18.761 0 0 0 622.755 119.971 A 14.697 14.697 0 0 0 623.731 114.746 A 9.365 9.365 0 0 0 623.588 113.054 Q 623.416 112.118 623.037 111.383 A 4.528 4.528 0 0 0 622.266 110.303 A 5.165 5.165 0 0 0 620.865 109.255 A 4.453 4.453 0 0 0 618.848 108.789 A 7.912 7.912 0 0 0 616.548 109.111 A 6.58 6.58 0 0 0 614.356 110.254 Q 612.501 111.719 611.329 114.063 A 18.775 18.775 0 0 0 609.972 117.709 A 22.44 22.44 0 0 0 609.62 119.287 A 31.115 31.115 0 0 0 609.083 125 A 20.312 20.312 0 0 0 609.237 127.45 A 24.39 24.39 0 0 0 609.425 128.711 A 40.201 40.201 0 0 0 610.02 131.531 A 35.491 35.491 0 0 0 610.255 132.422 Z M 294.923 114.16 A 15.796 15.796 0 0 0 295.133 116.68 A 19.227 19.227 0 0 0 295.411 118.067 A 17.875 17.875 0 0 0 296.737 121.744 A 19.974 19.974 0 0 0 296.925 122.119 A 20.419 20.419 0 0 0 299.464 125.928 A 14.726 14.726 0 0 0 303.028 129.004 A 28.453 28.453 0 0 0 303.32 125.245 A 26.165 26.165 0 0 0 303.321 125 Q 303.321 122.363 302.93 119.629 A 33.539 33.539 0 0 0 302.327 116.46 A 27.316 27.316 0 0 0 301.807 114.6 A 16.35 16.35 0 0 0 301.183 112.941 Q 300.82 112.123 300.398 111.46 A 8.528 8.528 0 0 0 300.001 110.889 A 4.283 4.283 0 0 0 299.255 110.113 A 2.82 2.82 0 0 0 297.462 109.473 A 1.103 1.103 0 0 0 297.082 109.549 Q 296.736 109.677 296.295 110.019 A 7.071 7.071 0 0 0 295.899 110.352 Q 294.923 111.231 294.923 114.16 Z M 1159.962 102.149 L 1164.259 102.149 Q 1164.259 101.537 1164.22 100.574 A 79.91 79.91 0 0 0 1164.21 100.342 A 23.959 23.959 0 0 0 1164.014 98.145 A 14.564 14.564 0 0 0 1163.871 97.276 Q 1163.763 96.735 1163.624 96.289 Q 1163.424 95.648 1163.19 95.533 A 0.232 0.232 0 0 0 1163.087 95.508 A 0.337 0.337 0 0 0 1162.913 95.564 Q 1162.672 95.711 1162.354 96.24 A 15.994 15.994 0 0 0 1162.018 96.831 Q 1161.821 97.193 1161.615 97.609 A 29.245 29.245 0 0 0 1161.427 97.998 Q 1160.938 99.024 1160.548 100.196 A 43.188 43.188 0 0 0 1160.365 100.757 Q 1160.108 101.563 1159.962 102.149 Z" vector-effect="non-scaling-stroke"/></g></svg>